<?xml version="1.0" encoding="UTF-8"?><svg xmlns="http://www.w3.org/2000/svg" viewBox="0 0 552.08 925.61"><defs><style>.d{fill:#00a89c;}.e,.f,.g{fill:none;stroke:#fff;stroke-miterlimit:10;stroke-width:3px;}.f{stroke-dasharray:0 0 2.01 20.08;}.g{stroke-dasharray:0 0 2.01 20.1;}</style></defs><g id="a"/><g id="b"><g id="c"><g><path class="d" d="M508.11,912.15c-200.02,11.94-382.62-87.9-463.36-254.12C-58.01,446.49,19.64,159.17,242.42,.45c88.56,303.9,177.12,607.8,265.69,911.7Z"/><g><g><path class="e" d="M529.83,913.19l.28,.96c-.33,.02-.67,.04-1,.06"/><path class="g" d="M509.03,915c-191.68,3.97-364.39-94.61-442.28-254.96C-34.62,451.35,39.58,168.92,255.48,8.95"/><path class="e" d="M263.61,3.03c.27-.19,.54-.39,.81-.58l.28,.96"/><path class="f" d="M270.32,22.68c85.57,293.62,171.13,587.25,256.7,880.87"/></g><g><path class="e" d="M549.83,922.19l.28,.96c-.33,.02-.67,.04-1,.06"/><path class="g" d="M529.03,924c-191.68,3.97-364.39-94.61-442.28-254.96C-14.62,460.35,59.58,177.92,275.48,17.95"/><path class="e" d="M283.61,12.03c.27-.19,.54-.39,.81-.58l.28,.96"/><path class="f" d="M290.32,31.68c85.57,293.62,171.13,587.25,256.7,880.87"/></g></g></g></g></g></svg>