<?xml version="1.0" encoding="UTF-8"?><svg xmlns="http://www.w3.org/2000/svg" viewBox="0 0 552.08 925.61"><defs><style>.d{fill:#00a89c;}.e,.f,.g{fill:none;stroke:#fff;stroke-miterlimit:10;stroke-width:3px;}.f{stroke-dasharray:0 0 2.01 20.08;}.g{stroke-dasharray:0 0 2.01 20.1;}</style></defs><g id="a"/><g id="b"><g id="c"><g><path class="d" d="M43.97,912.15c200.02,11.94,382.62-87.9,463.36-254.12C610.08,446.49,532.44,159.17,309.65,.45,221.09,304.35,132.53,608.25,43.97,912.15Z"/><g><g><path class="e" d="M22.25,913.19l-.28,.96c.33,.02,.67,.04,1,.06"/><path class="g" d="M43.05,915c191.68,3.97,364.39-94.61,442.28-254.96,101.37-208.68,27.17-491.12-188.74-651.09"/><path class="e" d="M288.47,3.03c-.27-.19-.54-.39-.81-.58l-.28,.96"/><path class="f" d="M281.75,22.68C196.19,316.31,110.62,609.93,25.05,903.55"/></g><g><path class="e" d="M2.25,922.19l-.28,.96c.33,.02,.67,.04,1,.06"/><path class="g" d="M23.05,924c191.68,3.97,364.39-94.61,442.28-254.96,101.37-208.68,27.17-491.12-188.74-651.09"/><path class="e" d="M268.47,12.03c-.27-.19-.54-.39-.81-.58l-.28,.96"/><path class="f" d="M261.75,31.68C176.19,325.31,90.62,618.93,5.05,912.55"/></g></g></g></g></g></svg>