<?xml version="1.0" encoding="UTF-8"?><svg xmlns="http://www.w3.org/2000/svg" viewBox="0 0 2236 911"><defs><style>.j{fill:#00a89c;}</style></defs><g id="a"/><g id="b"><g><path class="j" d="M540.16,259.29c-2.62-25.57-4.51-51.88-14.96-75.71-10.98-25.02-32.98-44.13-59.14-51.99-25.67-7.71-52.93-2.38-75.91,10.64-23.49,13.31-42.95,33.85-56.58,57.03-12.39,21.08-21.11,46.31-20.4,71.01,.56,19.63,8.06,37.66,20.68,52.58,12.9,15.23,29.92,26.66,46.99,36.69,18.66,10.96,38.12,20.47,57.04,30.97,18.89,10.48,36.77,22.14,52.78,36.72,17.07,15.55,32.18,33.29,44.75,52.65,12.47,19.2,22.59,40.08,28.47,62.27,5.37,20.27,7.07,41.83,2.39,62.41-4.92,21.6-16.71,40.58-33,55.48-14.55,13.3-30.89,22.59-49.86,26.86-16.68,3.75-35.21,3.6-52.08,.78-18.61-3.1-36.73-9.15-53.5-17.35-16.84-8.24-32.61-18.59-46.44-31.01-13.12-11.78-24.21-24.83-32.43-40.36-7.28-13.75-11.6-28.99-11.02-44.61,.17-4.4,.5-7.18,1.31-11.21s1.91-7.9,3.3-11.71c2.79-7.62,7.42-15.72,12.67-22.66,5.83-7.71,13.14-14.81,20.71-21.04,1.88-1.55,1.6-4.76,0-6.36-1.86-1.86-4.48-1.55-6.36,0-15.26,12.58-28.29,28.13-35.36,46.78-5.89,15.53-6.71,32.53-3.1,48.68,3.68,16.48,11.8,31.83,22.01,45.18,11.36,14.86,25.14,27.58,40.37,38.41s33.12,20.22,51.3,26.86c17.77,6.49,36.54,10.6,55.47,11.37,17.78,.73,36-1.64,52.56-8.35,20.51-8.31,38.61-23,52.01-40.52,13.37-17.49,21.02-38.49,22.77-60.38,1.76-22-2.41-44.31-9.83-64.98-7.95-22.13-19.51-42.9-33.4-61.83-13.77-18.77-29.73-35.99-47.77-50.71-16.99-13.86-35.88-24.78-55.16-35.1-18.89-10.12-38.14-19.68-56.23-31.21-15.78-10.05-31.35-22.09-41.43-37.78-10.45-16.28-13.57-35.35-10.5-54.61,4.09-25.64,15.92-50.01,32.46-69.93,16.65-20.04,38.61-36.96,64.15-43.57,25.85-6.68,53.09-.33,73.72,16.61,9.9,8.13,17.57,18.31,22.95,29.91,5.23,11.27,8.13,23.57,10.17,35.78s3.16,24.86,4.44,37.32c.25,2.42,1.89,4.5,4.5,4.5,2.24,0,4.75-2.07,4.5-4.5h0Z"/><path class="j" d="M616.7,510.03c.23,.11,.44,.26,.66,.38,.73,.41-.62-.42-.56-.45,.04-.02,.36,.3,.4,.34,.19,.18,.37,.36,.55,.56,.11,.12,.21,.26,.32,.37,.26,.28-.88-1.23-.34-.44,.38,.57,.74,1.14,1.06,1.75,.17,.34,.34,.68,.49,1.02,.07,.16,.14,.33,.22,.49-.79-1.65-.32-.76-.16-.35,1.53,3.87,2.36,8.01,3.07,12.09,.21,1.24,.41,2.48,.59,3.72,.1,.65,.19,1.3,.28,1.95,.1,.75-.15-1.12-.08-.56,.02,.15,.04,.3,.06,.46,.05,.37,.1,.74,.14,1.11,.37,2.93,.68,5.87,.97,8.81,.63,6.44,1.12,12.89,1.6,19.33,1.05,13.96,2,27.93,3.67,41.83,1.51,12.61,3.32,25.48,7.56,37.51,3.21,9.1,8.13,18.8,17.59,22.59,4.23,1.69,9.09,1.64,13.44,.43,4.7-1.3,8.27-4.62,11.13-8.42,3.2-4.26,5.36-9.27,7.19-14.24,2.21-6.03,3.81-12.28,5.14-18.56,3.31-15.61,5.07-31.55,6.34-47.44s1.93-31.48,2.29-47.24c.27-11.66,.33-23.32,.31-34.98,0-1.68,0-3.36,0-5.04,0-2.25-1.71-4.13-3.9-4.42-2-.27-4.6,1.01-4.94,3.22-3.56,23.1-.7,46.7,4.1,69.41,5.15,24.35,12.81,48.12,21.11,71.56,4.4,12.42,9.01,24.76,13.6,37.11l8.22-3.47c-.06-.11-.54-1.31-.3-.52-.08-.25-.16-.5-.23-.76-.05-.21-.17-1.37-.09-.28-.02-.31-.05-.61-.07-.92-.11-1.66-.25-3.31-.63-4.93-.55-2.29-3.28-3.87-5.54-3.14-2.38,.77-3.73,3.08-3.14,5.54,.1,.42,.19,.83,.25,1.25-.16-1.03-.01,.22,0,.36,.05,.68,.08,1.35,.16,2.03,.24,2.14,.75,4.03,1.83,5.92s3.6,2.69,5.62,1.84c1.91-.81,3.39-3.2,2.61-5.31-8.31-22.37-16.69-44.74-23.78-67.53-3.69-11.85-7.04-23.81-9.79-35.91-1.34-5.89-2.53-11.81-3.53-17.76-.23-1.38-.45-2.76-.66-4.14-.11-.72-.22-1.44-.32-2.16-.05-.33-.09-.65-.14-.98-.04-.26-.07-.52-.11-.78,.07,.55,.07,.55,0,.03-.37-2.83-.69-5.67-.96-8.51-.58-6.23-.88-12.48-.8-18.74,.04-3,.17-5.99,.4-8.98,.11-1.4,.24-2.81,.4-4.2,.04-.4-.03-1.76,.25-2.07l-.07,.51c.03-.23,.06-.46,.1-.69,.06-.45,.13-.91,.2-1.36l-8.84-1.2c0,9.82,.02,19.64-.11,29.46-.21,15.04-.68,30.07-1.59,45.09-.49,8.11-1.12,16.21-1.94,24.29-.4,3.96-.85,7.91-1.36,11.86-.07,.53-.14,1.06-.21,1.59-.04,.28-.13,.87,.06-.41-.04,.26-.07,.52-.11,.79-.13,.96-.27,1.91-.4,2.86-.27,1.88-.56,3.75-.87,5.62-1.13,6.9-2.49,13.78-4.33,20.53-.8,2.95-1.69,5.87-2.73,8.74-.24,.67-.49,1.33-.75,1.99-.11,.29-.23,.59-.35,.88-.07,.17-.14,.35-.21,.52-.3,.74,.06-.15,.17-.39-.54,1.18-1.05,2.37-1.63,3.53-1.04,2.07-2.23,4.04-3.6,5.91-.55,.76,.83-1.02,.09-.12-.15,.18-.3,.36-.45,.54-.32,.38-.66,.74-1,1.1s-.68,.67-1.04,.99c-.16,.14-.32,.27-.48,.41-.82,.7,.93-.65,.23-.17s-1.45,.95-2.23,1.35c-.1,.05-.21,.09-.31,.15-.55,.29,1.24-.47,.65-.27-.18,.06-.36,.14-.53,.2-.43,.15-.86,.27-1.3,.37-.51,.12-1.03,.23-1.55,.32-.45,.07-1.38,.06,.37-.04-.27,.02-.54,.06-.81,.08-.95,.08-1.9,.08-2.84,0-.51-.04-1.37-.35,.33,.06-.2-.05-.41-.06-.61-.1-.44-.08-.87-.18-1.3-.3s-.84-.26-1.26-.41-1.09-.6,.41,.18c-.21-.11-.44-.2-.66-.3-.8-.39-1.57-.86-2.3-1.37-.37-.26-1.1-.97,.21,.18-.16-.14-.33-.26-.49-.4-.36-.3-.71-.62-1.04-.94-.7-.68-1.35-1.41-1.97-2.17-.73-.88,.65,.9,.11,.15-.14-.19-.28-.38-.42-.57-.31-.43-.6-.87-.89-1.31-1.24-1.92-2.29-3.96-3.22-6.05-.14-.3-.26-.61-.4-.92-.02-.05,.5,1.2,.26,.61-.06-.16-.13-.31-.19-.47-.24-.59-.47-1.18-.69-1.77-.46-1.24-.89-2.49-1.29-3.74-.86-2.7-1.6-5.44-2.26-8.2-1.46-6.15-2.53-12.38-3.41-18.63-.06-.45-.13-.9-.19-1.35-.16-1.16,.13,1.03-.02-.16-.11-.84-.22-1.68-.32-2.51-.21-1.7-.41-3.39-.6-5.09-.39-3.45-.73-6.91-1.05-10.37-.64-6.96-1.18-13.92-1.7-20.89-.96-12.84-1.79-25.72-3.52-38.49-.63-4.65-1.36-9.32-2.6-13.86-1.02-3.76-2.4-7.53-4.87-10.59-.89-1.1-2-2.11-3.28-2.74-2.11-1.04-4.97-.64-6.16,1.61-1.07,2.03-.64,5.05,1.61,6.16h0Z"/><path class="j" d="M744.23,495.69c-1.73,9.51-.97,19.15,.51,28.64,1.73,11.06,4.65,21.92,7.92,32.61,3.6,11.76,7.69,23.36,11.91,34.91s8.46,22.79,12.56,34.23c3.53,9.86,6.98,19.78,9.67,29.91,.29,1.1,.58,2.21,.85,3.31l8.68-2.39c-3.73-9.17-6.9-18.57-9.41-28.15-1.26-4.79-2.35-9.63-3.26-14.5-.45-2.4-.86-4.8-1.22-7.21-.09-.58-.17-1.17-.26-1.75-.04-.29-.08-.58-.12-.88,.1,.76,0,.01-.01-.12-.17-1.32-.33-2.63-.47-3.95-1.06-9.79-1.37-19.66-.79-29.49,.15-2.49,.35-4.97,.61-7.45,.12-1.17,.26-2.33,.41-3.49,.02-.14,.11-.88,.01-.11,.04-.29,.08-.58,.12-.87,.09-.65,.19-1.31,.29-1.96,.75-4.86,1.74-9.69,2.97-14.45s2.72-9.53,4.44-14.18c.42-1.12,.84-2.23,1.29-3.33,.22-.55,.45-1.09,.67-1.64,.26-.65-.27,.61,.01-.03,.13-.3,.26-.61,.39-.91,.89-2.04,1.83-4.05,2.83-6.04,1.87-3.71,3.93-7.33,6.21-10.81,1.13-1.72,2.3-3.41,3.54-5.05,.17-.23,.99-1.28,.38-.5,.29-.37,.58-.74,.88-1.11,.66-.82,1.33-1.62,2.01-2.41,2.42-2.79,5.02-5.42,7.81-7.83,.65-.56,1.31-1.11,1.99-1.65,.16-.13,.33-.28,.5-.4-.85,.59-.34,.26-.15,.12,.42-.31,.84-.63,1.27-.94,1.39-.99,2.81-1.92,4.28-2.79,1.47-.87,2.98-1.66,4.53-2.38,.36-.17,.72-.32,1.08-.48,.55-.25-.82,.32-.26,.11,.18-.07,.36-.15,.55-.22,.77-.3,1.55-.59,2.33-.85,1.55-.52,3.13-.95,4.74-1.28,.75-.16,1.5-.28,2.26-.4,.37-.06,.62,.09-.35,.04,.17,0,.4-.05,.57-.07,.43-.05,.85-.09,1.28-.12,1.57-.13,3.15-.16,4.73-.09,.82,.03,1.64,.1,2.45,.18,.19,.02,.39,.05,.58,.07,.61,.06-.93-.15-.33-.05,.43,.07,.87,.13,1.3,.21,1.67,.3,3.32,.71,4.94,1.21,.78,.24,1.56,.51,2.33,.8,.35,.13,.85,.24,1.16,.46-.09-.06-.95-.42-.2-.08,.24,.11,.49,.21,.73,.32,3.45,1.57,6.66,3.58,9.7,5.83,.15,.11,.67,.52-.05-.04,.19,.15,.38,.3,.57,.45,.39,.31,.77,.62,1.15,.94,.88,.73,1.73,1.49,2.57,2.27,1.62,1.5,3.18,3.08,4.67,4.72,1.6,1.76,3.13,3.59,4.6,5.47s4.86,1.64,6.36,0c1.81-1.98,1.56-4.38,0-6.36-10.34-13.21-24.64-24.37-41.96-25.37-14.98-.86-28.96,6.69-39.44,16.88-12.94,12.57-21.54,29.2-27.08,46.2-6.33,19.44-8.48,40.21-7.19,60.57s5.9,40.97,13.07,60.31c.87,2.35,1.78,4.68,2.73,7.01,.88,2.17,3.03,3.95,5.54,3.14s3.74-3.08,3.14-5.54c-2.41-9.83-5.66-19.46-9.02-29-3.95-11.23-8.16-22.36-12.26-33.53s-8.41-23.11-12.14-34.82c-3.44-10.79-6.57-21.73-8.66-32.87-.23-1.24-.45-2.48-.66-3.72-.1-.58-.19-1.17-.28-1.76-.05-.34-.1-.68-.15-1.02-.03-.2-.17-1.3-.08-.55s-.03-.23-.05-.4c-.04-.28-.07-.57-.1-.85-.07-.61-.14-1.22-.2-1.83-.12-1.19-.23-2.38-.31-3.58-.29-4.29-.31-8.62,.18-12.9,.02-.22,.15-1.17,.04-.33s0-.01,.03-.2c.07-.49,.16-.98,.24-1.46,.42-2.31-.63-4.96-3.14-5.54-2.2-.5-5.09,.67-5.54,3.14h0Z"/><path class="j" d="M973.92,518.39c-5.46-5.14-11.86-9.45-19.13-11.53-6.21-1.77-12.87-1.73-19.09-.03-13.59,3.73-24.23,14.21-32.53,25.12-9.48,12.47-16.45,26.93-21.41,41.74-2.37,7.06-4.25,14.3-5.46,21.66-1.11,6.78-1.8,13.68-1.38,20.55s2.27,13.61,4.78,20.21c2.71,7.14,6.01,14.02,10.72,20.06,3.18,4.07,7.18,7.76,11.96,9.83s9.89,2.63,15.1,1.67c10.51-1.94,19.49-9.78,26.41-17.47,9.18-10.2,16.51-22.07,22.63-34.31,6.61-13.22,11.98-27.15,15.71-41.45,3.24-12.45,5.56-25.65,4.64-38.55-.2-2.87-.57-5.74-1.15-8.56-.45-2.19-2.86-3.5-4.94-3.22s-4.14,2.19-3.9,4.42c2.07,19.46,6.08,38.64,11.35,57.47s11.65,37.03,18.63,55.14c3.85,9.98,7.88,19.89,12,29.76,.9,2.16,3.02,3.96,5.54,3.14,2.08-.67,4.11-3.21,3.14-5.54-7.33-17.56-14.38-35.24-20.63-53.21-6.36-18.26-11.92-36.83-15.97-55.75-1.11-5.19-2.11-10.41-2.97-15.65-.44-2.68-.84-5.36-1.22-8.05-.07-.53,0-.05,0,.05-.05-.38-.1-.77-.15-1.15-.09-.69-.17-1.38-.26-2.07-.17-1.38-.32-2.76-.47-4.14l-8.84,1.2c.12,.57,.23,1.14,.32,1.72,.05,.32,.11,.64,.16,.97,.02,.15,.04,.3,.07,.44,.12,.81-.04-.24-.06-.48,.12,1.3,.29,2.59,.38,3.89,.18,2.78,.2,5.58,.09,8.37-.12,3.01-.38,6.02-.75,9.01-.05,.37-.1,.74-.14,1.11,.2-1.66,.03-.21-.02,.14-.12,.83-.25,1.65-.38,2.48-.26,1.61-.55,3.21-.87,4.81-1.33,6.73-3.09,13.37-5.18,19.9-1.08,3.39-2.25,6.75-3.51,10.09-.62,1.64-1.25,3.27-1.91,4.89-.34,.83-.68,1.66-1.02,2.49-.11,.25-.34,.78,.16-.37-.1,.23-.2,.47-.3,.71-.18,.43-.37,.86-.56,1.29-5.44,12.52-12.02,24.67-20.19,35.63-.22,.3-.45,.6-.68,.9-.13,.17-.31,.35-.41,.53,0-.02,.73-.93,.29-.38-.5,.64-1,1.27-1.51,1.9-.95,1.17-1.92,2.32-2.91,3.44-1.88,2.13-3.85,4.18-5.94,6.1-.98,.9-1.98,1.78-3.01,2.62-.24,.19-.48,.39-.72,.58-.82,.66,.9-.68,.05-.03-.52,.39-1.05,.78-1.59,1.16-1.93,1.35-3.95,2.57-6.08,3.57-.24,.11-.48,.22-.72,.33-.88,.41,1.13-.44,.21-.09-.53,.2-1.05,.41-1.59,.59-.99,.34-2,.62-3.02,.83-.48,.1-.95,.17-1.43,.25-.57,.1,1.47-.15,.34-.05-.26,.02-.52,.05-.78,.07-.99,.07-1.98,.07-2.97-.01-.23-.02-.47-.05-.7-.07-.82-.06,1.4,.24,.36,.05-.51-.1-1.02-.18-1.53-.31-.97-.24-1.87-.62-2.82-.92,1.59,.49,.62,.27,.19,.07-.23-.11-.45-.22-.68-.33-.48-.24-.95-.51-1.41-.78s-.89-.56-1.33-.86c-.24-.17-.48-.35-.72-.52-.62-.45,.99,.8,.06,.04-2.03-1.65-3.58-3.61-5.32-5.53,1.05,1.16,.21,.26-.03-.06-.21-.28-.41-.56-.61-.84-.45-.65-.89-1.3-1.32-1.97-.87-1.37-1.68-2.78-2.44-4.21-.84-1.57-1.62-3.18-2.34-4.81-.18-.41-.36-.82-.54-1.24-.13-.3-.32-1.14,.02,.06-.05-.17-.15-.35-.21-.52-.4-.97-.78-1.95-1.16-2.94-1.3-3.45-2.57-6.98-3.39-10.58-.3-1.31-.49-2.62-.71-3.94,.28,1.67,.06,.42,.01,.02-.04-.33-.07-.67-.1-1-.07-.75-.13-1.5-.17-2.25-.17-3.06-.13-6.14,.07-9.2,.11-1.64,.26-3.27,.45-4.9,.05-.4,.1-.79,.15-1.19,.15-1.18-.15,.97,.03-.24,.13-.89,.26-1.78,.41-2.67,.58-3.47,1.31-6.92,2.17-10.33,1.82-7.25,4.2-14.35,7.06-21.25,.1-.25,.22-.5,.32-.76-.42,1.11-.24,.57-.13,.32,.18-.42,.36-.84,.54-1.25,.4-.92,.81-1.83,1.23-2.74,.8-1.73,1.63-3.45,2.49-5.16,1.7-3.37,3.53-6.67,5.5-9.89s3.95-6.17,6.14-9.11c.25-.34,.51-.68,.77-1.02,.54-.72-.54,.68-.16,.2,.13-.17,.26-.33,.39-.5,.57-.73,1.15-1.44,1.74-2.15,1.11-1.33,2.25-2.62,3.43-3.88,2.25-2.41,4.65-4.68,7.21-6.76,.21-.17,.8-.49,.89-.71-.12,.32-.82,.62-.38,.29,.18-.13,.36-.27,.54-.41,.65-.49,1.31-.96,1.99-1.42,1.25-.85,2.54-1.65,3.86-2.38,.62-.34,1.24-.67,1.87-.98,.31-.15,.63-.3,.94-.45,.4-.18,1.78-.63,.25-.13,1.35-.45,2.65-1.02,4.03-1.42s2.65-.66,4-.89c1.25-.22-.94,.09-.02,0,.36-.03,.72-.08,1.09-.11,.69-.06,1.39-.09,2.08-.1s1.33,0,1.99,.04c.33,.02,.67,.04,1,.07,.25,.02,1.66,.2,.71,.06s.29,.05,.51,.09c.34,.06,.67,.12,1.01,.19,.71,.15,1.42,.32,2.12,.51s1.43,.43,2.13,.67c.34,.12,.68,.25,1.02,.38,.17,.07,.34,.14,.51,.2,.78,.3-.97-.44-.26-.11,1.46,.69,2.9,1.39,4.29,2.22s2.77,1.79,4.09,2.78c.76,.57-.83-.67-.09-.07,.14,.11,.27,.22,.41,.33,.38,.31,.75,.62,1.13,.94,.73,.63,1.45,1.27,2.15,1.93,1.72,1.61,4.69,1.83,6.36,0s1.83-4.64,0-6.36h0Z"/><path class="j" d="M1179.32,174.08c5.52,32.04,9.94,64.27,13.62,96.57,3.72,32.6,6.73,65.28,9.42,97.98,2.73,33.08,4.67,66.16,5.22,99.35,.54,32.45,.08,64.9-.72,97.34s-1.95,65.45-2.74,98.19c-.1,4.12-.19,8.23-.28,12.35-.12,5.79,8.88,5.79,9,0,.7-32.8,1.83-65.59,2.71-98.39,.88-32.74,1.5-65.49,1.18-98.24-.33-33.14-1.79-66.22-4.44-99.25-2.65-32.91-5.56-65.8-9.15-98.62s-7.81-65.3-13.13-97.74c-.65-3.98-1.32-7.96-2.01-11.93-.41-2.4-3.36-3.74-5.54-3.14-2.53,.7-3.56,3.13-3.14,5.54h0Z"/><path class="j" d="M1218.41,426.71c4.92,3.61,11.39,4.57,17.33,3.83,7.8-.98,15.11-3.98,22.02-7.63,8.33-4.4,16.12-9.81,23.59-15.53,9.14-7,17.87-14.49,26.33-22.3,9.04-8.35,17.78-17.03,26.31-25.91,8.79-9.15,17.34-18.52,25.71-28.06,8.05-9.18,15.91-18.51,23.6-27.99,7.03-8.67,13.91-17.47,20.59-26.42,5.23-7.01,10.34-14.11,15.17-21.4,1.83-2.77,3.62-5.57,5.32-8.42,.7-1.18,1.38-2.37,2.04-3.57,1.03-1.89,2.37-3.99,1.87-6.2-.34-1.47-1.72-2.96-2.72-4.04-.87-.94-1.89-1.73-2.92-2.47-1.64-1.18-3.49-2.04-5.28-2.98-2.08-1.09-4.99-.6-6.16,1.61-1.1,2.07-.61,4.99,1.61,6.16,1.53,.8,3.11,1.55,4.56,2.49,.2,.13,1.23,.9,.37,.21,.33,.26,.64,.53,.94,.82s.6,.62,.89,.95c.32,.39,.33,.4,.02,.02,.16,.23,.31,.46,.46,.69v-4.54c-2.46,5.06-5.54,9.84-8.64,14.53-4.62,7-9.52,13.83-14.53,20.56-1.46,1.97-2.94,3.93-4.42,5.88-.76,1-1.52,1.99-2.28,2.98-.38,.49-.75,.98-1.13,1.47s.65-.84,0,.01c-.24,.31-.48,.62-.72,.93-3.31,4.27-6.66,8.5-10.05,12.7-7.34,9.1-14.86,18.07-22.53,26.89-7.99,9.18-16.15,18.21-24.52,27.05-8.29,8.75-16.77,17.32-25.53,25.6-8.03,7.58-16.28,14.94-24.9,21.85-1.02,.82-2.05,1.63-3.09,2.44-.22,.17-.54,.35-.72,.56,.02-.02,.93-.71,.37-.29-.12,.09-.24,.18-.36,.28-.51,.39-1.01,.78-1.52,1.16-1.95,1.47-3.92,2.92-5.92,4.33-3.67,2.59-7.43,5.07-11.3,7.36-3.42,2.02-6.93,3.9-10.56,5.52-.2,.09-.41,.18-.61,.27-.18,.08-1.11,.47-.22,.1s.04-.02-.14,.06c-.22,.09-.45,.18-.67,.27-.83,.33-1.66,.64-2.5,.94-1.53,.54-3.09,1.02-4.66,1.41-.76,.19-1.53,.36-2.3,.5-.35,.07-.7,.13-1.06,.18-.17,.03-.35,.05-.52,.08-.62,.1,1.47-.17,.48-.07-1.39,.15-2.78,.24-4.17,.2-.65-.02-1.3-.08-1.94-.14-.87-.08,.94,.14,.62,.09-.15-.03-.3-.04-.45-.07-.32-.05-.63-.11-.95-.18-.62-.13-1.23-.3-1.83-.49-.28-.09-.56-.19-.83-.29-.14-.05-.27-.11-.41-.16-.54-.2,1.32,.61,.52,.22-1.08-.53-2.11-1.09-3.08-1.81-1.9-1.4-5.1-.38-6.16,1.61-1.24,2.34-.42,4.66,1.61,6.16h0Z"/><path class="j" d="M1214.61,441.44c.4-.37,.81-.73,1.23-1.08,.22-.19,.45-.37,.67-.55,.84-.7-.49,.35,.07-.06,.92-.67,1.85-1.34,2.81-1.94s1.86-1.12,2.82-1.62c.46-.24,.93-.47,1.4-.69,.25-.12,.51-.24,.76-.35,.11-.05,.22-.1,.33-.15,.8-.36-.79,.31-.3,.13,2.06-.79,4.12-1.51,6.27-2.03,1.1-.27,2.21-.49,3.33-.68,.28-.05,.56-.09,.85-.13,.19-.03,1.07-.15,.25-.04-.86,.12,.19-.02,.38-.04,.33-.04,.66-.07,.98-.1,4.7-.45,9.41-.24,14.09,.32,.78,.09-1.04-.15,0,0,.31,.05,.62,.09,.93,.14,.62,.1,1.25,.2,1.87,.31,1.26,.22,2.52,.47,3.77,.75,2.53,.56,5.03,1.22,7.51,1.96,2.61,.78,5.19,1.65,7.74,2.6,1.26,.47,2.51,.95,3.75,1.45,.65,.26,1.3,.53,1.95,.8,.79,.33-.75-.32,.04,.02,.37,.16,.74,.32,1.11,.48,5.23,2.28,10.35,4.83,15.35,7.58,10.03,5.51,19.64,11.79,28.84,18.6,1.13,.84,2.25,1.68,3.36,2.53,.28,.21,.55,.42,.83,.64,.4,.3-.33-.25-.32-.25,.12,.08,.24,.18,.35,.27,.58,.45,1.16,.91,1.74,1.36,2.07,1.64,4.12,3.3,6.15,5,3.8,3.18,7.51,6.46,11.11,9.87,3.11,2.94,6.14,5.98,9.03,9.14,1.22,1.34,2.42,2.7,3.58,4.1,.94,1.14,1.87,2.28,2.79,3.43,.45,.56,.9,1.13,1.34,1.69,.24,.31,.48,.62,.72,.92,.17,.21,1,1.3,.33,.42,8.15,10.68,15.65,21.83,22.39,33.45,3.6,6.21,7,12.55,10.15,19,1.58,3.23,3.09,6.49,4.54,9.78,.37,.84,.73,1.68,1.09,2.52,.07,.16,.48,1.14,.31,.73-.2-.47,.05,.13,.08,.19,.13,.3,.25,.6,.38,.91,.7,1.69,1.38,3.39,2.04,5.09,5.09,13.14,9.1,26.77,11.2,40.72,.06,.43,.13,.86,.19,1.28,.04,.25,.2,1.54,.06,.45,.1,.85,.22,1.71,.31,2.56,.19,1.7,.35,3.4,.48,5.1,.24,3.29,.37,6.6,.34,9.9s-.18,6.49-.49,9.71c-.08,.81-.17,1.63-.26,2.44-.04,.33-.03,.73-.13,1.04,.34-1.04-.03,.17-.08,.53-.24,1.6-.52,3.2-.85,4.78-.62,3.04-1.4,6.04-2.34,9-.71,2.24,.84,5.01,3.14,5.54,2.45,.56,4.77-.74,5.54-3.14,4.09-12.91,5.14-26.7,4.1-40.16-1.11-14.4-4.36-28.58-8.95-42.24s-10.87-27.83-17.9-40.98c-6.64-12.42-14.13-24.39-22.39-35.79-6.15-8.5-12.62-16.79-20.03-24.23-7.09-7.13-14.72-13.73-22.64-19.92-9.31-7.28-19.01-14.07-29.19-20.1-10.18-6.03-20.85-11.33-31.99-15.34-9.96-3.58-20.53-6.1-31.16-6.18-9.78-.08-19.75,2.14-28.02,7.52-2.15,1.4-4.19,2.99-6.09,4.71-1.75,1.58-1.73,4.78,0,6.36,1.87,1.72,4.5,1.69,6.36,0h0Z"/><path class="j" d="M1544.78,530.73c-7.69-7.94-17.43-15.42-28.64-17.21-9.13-1.46-18.21,.74-25.7,6.19-7.89,5.74-13.83,13.74-18.2,22.39-4.86,9.61-8.09,20.05-9.76,30.68s-1.99,22.28-.14,33.37c1.95,11.73,6.13,24.01,14.13,33.04,5.9,6.66,14.54,10.86,23.55,9.71,10.07-1.28,18.55-7.69,24.82-15.38,9.28-11.39,15.15-25.43,18.62-39.61,3.8-15.54,4.69-31.59,5.56-47.51,.21-3.9,.43-7.8,.69-11.7l-8.39,2.27c.9,1.52,1.7,3.09,2.42,4.69,.1,.22,.19,.44,.29,.65,.16,.36,.35,.33-.17-.41,.26,.37,.38,.94,.55,1.36,.33,.85,.65,1.71,.95,2.57,1.33,3.84,2.36,7.77,3.23,11.74,.95,4.28,1.71,8.59,2.39,12.91,.36,2.25,.69,4.51,1.01,6.77,.16,1.12,.31,2.24,.47,3.36,.07,.51,.14,1.02,.21,1.53,.04,.31,.08,.61,.12,.92,.13,.94-.13-1.01,.03,.19,2.39,17.83,4.06,36.45,11.24,53.13,3.22,7.49,8.17,14.55,15.38,18.66,2.05,1.16,5.01,.55,6.16-1.61s.57-4.91-1.61-6.16c-.68-.39-1.34-.8-1.98-1.24-.18-.13-1.27-.94-.57-.4,.66,.51,.08,.06-.04-.04-.22-.18-.44-.36-.65-.55-1.2-1.04-2.3-2.2-3.31-3.42-.14-.17-.28-.35-.42-.52-.44-.53,.29,.35,.29,.38-.03-.29-.62-.84-.8-1.09-.48-.69-.94-1.39-1.38-2.11-.96-1.56-1.81-3.19-2.58-4.85-.17-.37-.34-.75-.51-1.13-.1-.23-.19-.46-.3-.69,.52,1.13,.27,.64,.16,.38-.38-.95-.76-1.91-1.11-2.87-.67-1.84-1.26-3.71-1.81-5.59-1.19-4.11-2.13-8.28-2.95-12.48-.87-4.46-1.59-8.95-2.24-13.44-.33-2.25-.64-4.5-.95-6.76-.07-.51-.14-1.03-.21-1.54-.03-.26-.19-1.34,0-.04-.04-.31-.08-.62-.12-.93-.15-1.13-.3-2.26-.45-3.4-1.23-9.21-2.43-18.45-4.31-27.56-1.77-8.59-4.15-17.36-8.64-24.97-.98-1.65-3.19-2.68-5.08-2.07-1.98,.64-3.17,2.28-3.3,4.34-.51,7.67-.85,15.35-1.35,23.02-.24,3.73-.52,7.46-.89,11.19-.18,1.89-.39,3.78-.62,5.66-.05,.43-.11,.87-.16,1.3,0,.03-.1,.75-.03,.27s-.03,.23-.04,.27c-.14,1.01-.29,2.02-.45,3.03-1.17,7.44-2.84,14.81-5.26,21.95-.63,1.87-1.32,3.73-2.05,5.57-.17,.43-.35,.86-.52,1.29,0,0-.29,.69-.13,.32s-.14,.33-.14,.32c-.44,1-.89,2.01-1.35,3-1.34,2.84-2.8,5.62-4.43,8.31-.76,1.25-1.55,2.47-2.37,3.67-.37,.53-.74,1.06-1.13,1.59-.19,.26-.38,.51-.57,.77-.09,.12-.18,.26-.29,.38,.33-.38,.4-.51,.03-.05-1.58,1.96-3.24,3.84-5.06,5.57-.86,.82-1.75,1.6-2.67,2.35-.2,.17-.43,.32-.62,.49,.44-.4,.58-.44,.08-.07-.45,.33-.9,.65-1.36,.96-.89,.6-1.8,1.15-2.74,1.66-.42,.23-.84,.44-1.27,.65-.25,.12-.5,.23-.74,.35-.11,.05-.21,.09-.32,.14-.5,.23,.95-.37,.44-.19-1.8,.64-3.55,1.17-5.43,1.53-.75,.14,1.1-.11,.35-.04-.21,.02-.42,.05-.63,.07-.49,.04-.98,.07-1.48,.08-.91,.02-1.81-.05-2.72-.12-.75-.06,1.11,.19,.37,.05-.21-.04-.41-.07-.62-.1-.45-.08-.89-.18-1.33-.29-.9-.23-1.75-.56-2.62-.86-.27-.09,1.04,.47,.28,.12-.2-.09-.4-.18-.59-.28-.46-.22-.92-.46-1.36-.72-.82-.47-1.61-1-2.38-1.55-.09-.07-.18-.14-.28-.21-.38-.26,.47,.38,.45,.34-.15-.2-.45-.36-.64-.53-.4-.34-.79-.69-1.18-1.05-.8-.75-1.56-1.55-2.28-2.38-.35-.4-.68-.81-1.01-1.23-.51-.63,.52,.71,.04,.05-.19-.26-.38-.52-.57-.78-.72-1.02-1.4-2.07-2.03-3.15-.68-1.15-1.31-2.34-1.89-3.54-.28-.58-.56-1.17-.82-1.76-.14-.3-.27-.61-.4-.91-.2-.47,.12,.28,.13,.3-.08-.21-.17-.42-.26-.63-1.18-2.95-2.16-5.98-2.98-9.06-.73-2.75-1.35-5.53-1.81-8.34-.1-.59-.11-1.27-.28-1.84,0-.03,.13,.99,.06,.48-.02-.14-.04-.29-.05-.43-.04-.33-.08-.67-.12-1-.14-1.25-.26-2.51-.34-3.77-.35-5.05-.28-10.12,.14-15.16,.11-1.3,.24-2.6,.4-3.9,.04-.3,.08-.6,.11-.9,.06-.5-.05,.45-.06,.45,0,0,.06-.42,.06-.45,.1-.7,.2-1.39,.31-2.09,.41-2.53,.9-5.04,1.48-7.53,1.15-4.94,2.65-9.8,4.52-14.51,.11-.27,.21-.54,.32-.8,.07-.17,.48-1.01,.16-.39s.1-.22,.17-.39c.15-.35,.3-.7,.46-1.04,.48-1.07,.98-2.14,1.51-3.19,1.06-2.13,2.22-4.22,3.48-6.25,.59-.94,1.19-1.87,1.83-2.79,.32-.47,.65-.93,.99-1.39,.15-.21,.31-.42,.46-.63,.08-.1,.16-.21,.23-.31,.34-.46-.59,.74-.23,.3,1.37-1.7,2.78-3.35,4.32-4.9,.72-.71,1.45-1.4,2.22-2.07,.39-.34,.78-.67,1.19-1,.14-.11,.82-.64,.19-.16s.14-.1,.29-.21c1.57-1.16,3.23-2.2,4.97-3.08,.44-.22,.88-.43,1.32-.63,.64-.3,.19-.03-.25,.1,.25-.07,.49-.2,.73-.29,.9-.35,1.82-.65,2.75-.9s1.8-.45,2.71-.6c.22-.04,1.14-.16,.28-.05s-.02,0,.18-.01c.49-.05,.97-.09,1.46-.12,.99-.05,1.98-.05,2.97,0,.47,.02,.93,.06,1.39,.11,.23,.02,.47,.08,.7,.08,.07,0-1.09-.17-.61-.08,.2,.04,.39,.06,.59,.09,2.1,.35,4.16,.93,6.15,1.68,.25,.09,.49,.19,.74,.29,.83,.33-.35-.16-.08-.04,.58,.27,1.17,.52,1.75,.81,1.08,.53,2.13,1.1,3.16,1.71,1.14,.68,2.25,1.4,3.34,2.16,.53,.37,1.04,.75,1.56,1.13,.69,.51-.54-.44,.13,.1,.35,.28,.7,.56,1.05,.84,2.34,1.92,4.54,4,6.64,6.17,1.64,1.69,4.74,1.77,6.36,0s1.75-4.56,0-6.36h0Z"/><path class="j" d="M1605.2,525.91c.26,.07,.99,.37,.03-.03s-.18-.06,.06,.08c.18,.11,.34,.26,.52,.36-.13-.07-1.07-.92-.56-.42,.09,.09,.19,.17,.28,.25,.39,.36,.72,.77,1.07,1.17,.47,.53-.7-.97-.4-.51,.08,.13,.18,.25,.27,.38,.19,.27,.37,.54,.54,.81,.78,1.23,1.45,2.54,2.06,3.86,.17,.36,.33,.73,.49,1.1,.33,.74-.04-.07-.16-.39,.09,.24,.2,.47,.29,.71,.35,.86,.67,1.72,.99,2.59,3.24,8.94,5.35,18.3,7.25,27.6,2.32,11.32,4.18,22.73,5.82,34.16,.21,1.44,.41,2.89,.61,4.33,.1,.69,.19,1.39,.29,2.08,.02,.18,.18,1.31,.07,.51s.08,.57,.1,.78c.37,2.8,.73,5.6,1.07,8.4,.64,5.2,1.23,10.41,1.78,15.63,.8,7.65,1.55,15.32,1.92,23.01,.03,.61,.06,1.21,.08,1.82,.08,2.35,2.01,4.61,4.5,4.5s4.44-1.98,4.5-4.5c.18-8.1-.72-16.27-1.25-24.34-.82-12.56-1.51-25.12-1.67-37.71-.18-13.59,.21-27.23,1.94-40.72,.1-.75-.05,.41-.06,.45,.04-.25,.07-.5,.1-.74,.05-.33,.09-.66,.14-.99,.13-.86,.26-1.71,.4-2.56,.25-1.56,.53-3.11,.84-4.66,.58-2.96,1.27-5.91,2.09-8.82,.77-2.72,1.65-5.4,2.7-8.02,.12-.29,.24-.58,.35-.87,.21-.53-.5,1.14-.17,.41,.06-.12,.11-.25,.16-.38,.27-.62,.55-1.23,.84-1.84,.57-1.18,1.17-2.34,1.83-3.47,.6-1.03,1.24-2.05,1.92-3.03,.18-.25,.35-.5,.53-.75,.13-.18,.75-.99,.2-.27s.07-.09,.21-.25c.21-.25,.42-.51,.63-.76,.74-.86,1.53-1.69,2.37-2.47,.38-.35,.77-.69,1.16-1.02,.22-.18,.45-.35,.67-.54-1.26,1.07-.37,.29-.02,.04,.9-.64,1.83-1.22,2.81-1.74,.45-.24,.91-.46,1.37-.67,1.1-.5-.63,.23-.13,.05,.27-.1,.53-.21,.8-.31,1.1-.4,2.22-.71,3.36-.95,.21-.04,.43-.08,.64-.12,.89-.19-.98,.08-.57,.07,.37,0,.75-.07,1.12-.07,.35,0,.7,.02,1.05,.04,.86,.04-.32,0-.59-.09,.21,.06,.44,.07,.65,.12,.32,.07,.65,.15,.96,.25,.56,.17,1.68,.84,.08-.03,.67,.36,1.36,.66,2,1.07,.33,.21,.63,.45,.95,.66,.35,.23-1.08-.88-.37-.28,.18,.15,.36,.3,.54,.45,.66,.58,1.28,1.19,1.87,1.84,.3,.33,.6,.68,.89,1.02,.14,.17,.28,.34,.42,.51,.49,.6-.81-1.1-.11-.14,1.26,1.72,2.4,3.51,3.43,5.37,1.17,2.12,2.22,4.31,3.19,6.53,.11,.24,.21,.49,.31,.73,.33,.75-.45-1.09-.14-.34,.05,.12,.1,.25,.16,.37,.26,.63,.52,1.27,.77,1.91,.51,1.29,.99,2.59,1.45,3.89,2.05,5.75,3.75,11.61,5.28,17.52,3.43,13.29,5.98,26.81,8.19,40.35,1.12,6.84,2.13,13.7,3.08,20.57,.11,.77,.21,1.54,.32,2.31,.06,.42,.12,.85,.17,1.27,.04,.29,.12,.87-.06-.44,.03,.25,.07,.51,.1,.76,.22,1.66,.44,3.32,.66,4.99,.4,3.07,.78,6.14,1.16,9.21,1.2,9.76,2.26,19.53,3.48,29.28,.24,1.87,.48,3.73,.75,5.6,.32,2.21,2.97,3.49,4.94,3.22,2.27-.3,3.79-2.16,3.9-4.42,.42-8.39,.02-16.85-.08-25.24-.16-13.25-.21-26.51,.16-39.76,.2-7.3,.53-14.59,1.04-21.87,.25-3.59,.55-7.18,.9-10.76,.18-1.83,.38-3.65,.59-5.48,.1-.82,.19-1.63,.3-2.44,.05-.38,.1-.77,.15-1.15,.03-.25,.07-.51,.1-.76-.18,1.45-.06,.48-.02,.18,.89-6.53,2.03-13.03,3.61-19.43,.71-2.87,1.51-5.71,2.44-8.52,.44-1.33,.91-2.64,1.42-3.95,.23-.58,.48-1.15,.7-1.74-.58,1.52-.16,.37,0,0s.31-.7,.47-1.04c1.02-2.21,2.18-4.37,3.53-6.4,.29-.44,.59-.87,.9-1.3,.14-.19,.31-.38,.44-.59-.86,1.4-.31,.39,0,.03,.65-.8,1.35-1.56,2.08-2.28,.36-.35,.72-.68,1.1-1,.19-.16,.38-.31,.56-.47,.5-.43-.92,.69-.51,.39,.14-.1,.27-.2,.4-.3,.76-.55,1.57-1.05,2.41-1.48,.52-.27,2.02-.72,.32-.19,.46-.14,.91-.35,1.37-.49,.42-.13,.85-.25,1.28-.35,.23-.05,.46-.09,.69-.14,1-.22-1.16,.08-.5,.06,.31,0,.61-.04,.92-.03,.14,0,.27,.02,.41,.02,.96,.03-1.06-.2-.6-.09,.64,.16,1.24,.33,1.87,.53-1.49-.46-.71-.32-.12-.01,.34,.18,.67,.37,.99,.58s.59,.44,.9,.64c-.35-.23-1.03-.84-.38-.28,.15,.13,.3,.25,.45,.38,.66,.58,1.27,1.21,1.86,1.86,.28,.32,.56,.64,.83,.97,.13,.16,.26,.33,.39,.49,.43,.52-.76-1.01-.36-.46,.08,.12,.17,.23,.26,.35,1.29,1.74,2.44,3.58,3.5,5.46,1.21,2.15,2.31,4.37,3.33,6.62,.26,.57,.51,1.14,.76,1.71,.13,.31,.27,.62,.4,.92s.4,1.07-.14-.33c.07,.19,.16,.38,.24,.57,.54,1.3,1.06,2.61,1.56,3.92,2.27,5.94,4.21,12,5.97,18.12,3.89,13.55,6.9,27.37,9.32,41.26,.61,3.47,1.17,6.94,1.7,10.43,.27,1.77,.52,3.54,.77,5.31,.05,.38,.1,.75,.15,1.13,.09,.62-.16-1.23-.04-.32,.03,.21,.06,.41,.08,.62,.11,.86,.23,1.73,.33,2.59,.79,6.28,1.43,12.58,1.86,18.9,.35,5.25,.57,10.51,.46,15.77-.04,2.11-.14,4.22-.34,6.33-.04,.43-.09,.86-.14,1.29-.02,.19-.05,.39-.07,.58,.2-1.86,.11-.77,.04-.32-.12,.76-.25,1.52-.42,2.28-.15,.65-.31,1.3-.52,1.93-.09,.28-.21,.55-.3,.83-.17,.5,.64-1.37,.26-.62-.06,.12-.11,.23-.17,.35-1.06,2.1-.63,4.97,1.61,6.16,2.04,1.08,5.03,.63,6.16-1.61,1.68-3.33,2.18-7.05,2.54-10.71,.45-4.62,.45-9.29,.31-13.92-.39-13.12-1.97-26.21-3.93-39.18-2.16-14.27-4.95-28.46-8.54-42.43-3.22-12.55-7.02-25.08-12.5-36.85-2.1-4.52-4.53-8.84-7.6-12.77-2.43-3.11-5.41-5.81-9.15-7.22-4.04-1.52-8.35-.4-12.1,1.39-4.37,2.08-7.8,5.74-10.54,9.64-3.14,4.46-5.32,9.59-7.12,14.72-2.06,5.86-3.52,11.93-4.69,18.03-2.76,14.42-4.03,29.13-4.75,43.78-.7,14.13-.82,28.28-.72,42.42,.07,10.17,.38,20.35,.28,30.52-.01,1.42-.04,2.84-.11,4.25l8.84-1.2c-.05-.36-.1-.71-.15-1.07-.02-.17-.05-.34-.07-.51,.08,.59,.17,1.25,.06,.43-.11-.86-.22-1.73-.33-2.59-.25-1.99-.49-3.98-.72-5.97-.6-5.09-1.18-10.17-1.79-15.26-1.58-13.28-3.27-26.55-5.28-39.77-2.11-13.91-4.53-27.79-7.71-41.5-2.79-12.02-6.1-24.05-11.24-35.3-3.53-7.75-8.57-16.43-17-19.52-3.97-1.46-8.32-.84-12.2,.59-4.89,1.81-9.22,4.78-12.66,8.71-7.62,8.7-11.35,20.24-13.63,31.39-2.76,13.51-3.65,27.4-3.85,41.17-.19,13.39,.33,26.78,1.12,40.14,.57,9.68,1.43,19.36,1.76,29.05,.05,1.37,.07,2.75,.04,4.12h9c-.25-7.29-.96-14.57-1.69-21.82-1.12-11.19-2.48-22.36-4.03-33.49-1.62-11.68-3.47-23.34-5.76-34.91-1.91-9.69-4.04-19.42-7.23-28.78-1.23-3.59-2.6-7.21-4.47-10.53-1.4-2.49-3.24-5.1-5.8-6.53-.66-.37-1.37-.68-2.1-.88-2.27-.61-4.99,.77-5.54,3.14s.71,4.88,3.14,5.54h0Z"/><path class="j" d="M1834.65,517.9c.36,.43,.14,.56-.23-.31,.07,.16,.24,.34,.34,.49,.19,.29,.38,.58,.55,.88,.22,.38,.43,.77,.62,1.16,.1,.21,.2,.41,.3,.62,.27,.56,.43,.37-.07-.21,.51,.58,.72,1.88,.96,2.61,.34,1.05,.64,2.12,.91,3.19,.58,2.29,1.03,4.61,1.42,6.94,.2,1.2,.38,2.41,.55,3.62s-.13-1.01,.02,.16c.04,.34,.09,.68,.13,1.03,.09,.69,.17,1.38,.25,2.08,1.2,10.51,1.62,21.09,2.73,31.6,2.33,22.18,4.84,44.35,7.26,66.53,.43,3.93,.86,7.87,1.27,11.8,.14,1.38,.29,2.75,.42,4.13,.04,.41,.08,.81,.11,1.22,.1,1.36-.35-.32,.64-1.74l6.16-1.61h0l1.61,1.61c.75,1.54,.45,1.17,.35,.47-.03-.21-.06-.43-.09-.64-.16-1.13,.18,1.34,0,.06-.31-2.32-1.85-4.62-4.5-4.5-2.17,.1-4.83,2-4.5,4.5s.25,4.67,2.58,6.28c2.12,1.46,4.85,.26,6.16-1.61,1.18-1.68,.42-4.64,.23-6.51-.35-3.41-.72-6.82-1.09-10.23-.76-6.99-1.53-13.98-2.27-20.97-1.6-15.12-3.24-30.23-4.95-45.34-1.23-10.84-1.72-21.74-2.84-32.59-.62-5.97-1.35-11.98-2.74-17.82-1.13-4.73-2.75-9.47-5.9-13.25-1.51-1.82-4.82-1.68-6.36,0-1.77,1.93-1.61,4.43,0,6.36h0Z"/><path class="j" d="M1935.32,396.95c-2.65,6.53-3.83,13.58-4.43,20.58-.66,7.73-.46,15.52,.1,23.25,1.23,16.93,4.16,33.68,6.85,50.42,.63,3.95,1.26,7.9,1.83,11.85,.12,.83,.24,1.66,.36,2.5,.07,.47,.13,.94,.19,1.41-.17-1.2,.06,.47,.09,.72,.23,1.74,.44,3.49,.63,5.24,.94,8.55,1.31,17.17,1.56,25.76,.56,19.63,.17,39.27,.69,58.9s1.82,38.89,6.09,57.84c.5,2.2,1.04,4.39,1.62,6.57l.45-3.47c-.09,.21-.26,.44-.32,.65-.13,.21-.07,.14,.18-.21,.25-.37,.57-.67,.96-.9l2.27-.61c2.39-.16,4.14,3.24,3.3,1.66,.11,.22,.41,1.11,.18,.38-.15-.45-.31-.9-.47-1.34-.57-1.5-1.17-2.78-2.26-3.97-1.59-1.74-4.77-1.74-6.36,0-1.71,1.86-1.7,4.51,0,6.36,.48,.53-.28-.35-.27-.35,.03,0,.22,.39,.25,.44,.34,.66-.13-.26-.13-.34,0,.11,.15,.38,.19,.51,.35,.96,.64,1.95,1.11,2.86,1.56,3.05,5.44,3.68,7.9,1.3,1.2-1.16,1.99-3.16,1.78-4.76-.18-1.34-.63-2.66-.95-3.97-.59-2.42-1.13-4.85-1.62-7.29s-.92-4.8-1.31-7.22c-.19-1.18-.38-2.36-.55-3.54-.09-.59-.17-1.19-.25-1.78-.01-.11-.14-1.03-.07-.52s-.08-.65-.1-.75c-.65-5.06-1.15-10.14-1.53-15.23-1.57-20.75-1.32-41.59-1.46-62.39-.13-18.61-.64-37.15-3.27-55.59-1.2-8.39-2.61-16.75-3.95-25.11-.71-4.43-1.4-8.85-2.04-13.29-.15-1.06-.3-2.13-.45-3.19-.03-.2-.27-2.02-.14-1-.08-.6-.16-1.2-.23-1.79-.28-2.18-.55-4.37-.79-6.55-.94-8.5-1.58-17.07-1.43-25.63,.07-3.86,.32-7.72,.78-11.55,.1-.84-.02,.06-.03,.2,.02-.22,.06-.44,.09-.66,.06-.44,.13-.88,.2-1.31,.16-.97,.34-1.93,.53-2.89,.35-1.7,.77-3.39,1.26-5.06s1.03-3.17,1.65-4.72c.89-2.19-.96-5.04-3.14-5.54-2.61-.59-4.58,.8-5.54,3.14h0Z"/><path class="j" d="M1833.47,477.44c.27-.35,.57-.66,.92-.94l-.91,.7c.25-.19,.51-.36,.79-.49l-1.07,.45c.23-.1,.46-.17,.71-.21l-1.2,.16c.2-.02,.4-.02,.6,0l-1.2-.16c.17,.03,.32,.07,.48,.13l-1.07-.45c.21,.09,.4,.2,.59,.34l-.91-.7c.26,.2,.48,.43,.69,.69l-.7-.91c.1,.13,.18,.27,.25,.43l-.45-1.07c.11,.25,.17,.52,.21,.79l-.16-1.2c.06,.46,.05,.93,0,1.39l.16-1.2c-.06,.42-.16,.82-.32,1.21l.45-1.07c-.1,.23-.22,.45-.37,.65l.7-.91c-.08,.09-.16,.18-.25,.25l.91-.7c-.07,.05-.14,.1-.22,.14l1.07-.45c-.08,.03-.15,.05-.23,.07l1.2-.16c-.06,0-.12,0-.19,0l1.2,.16c-.09-.01-.17-.04-.26-.07l1.07,.45c-.1-.05-.18-.1-.27-.16l.91,.7c-.16-.13-.29-.27-.42-.43l.7,.91c-.1-.13-.18-.26-.25-.41l.45,1.07c-.07-.16-.11-.32-.14-.49l.16,1.2c-.01-.13-.01-.26,0-.4l-.16,1.2c.02-.16,.07-.31,.13-.45l-.45,1.07c.08-.17,.17-.32,.28-.47l-.7,.91c.12-.14,.25-.27,.4-.39l-.91,.7c.15-.11,.3-.2,.47-.27l-1.07,.45c.14-.06,.28-.1,.44-.12l-1.2,.16c.15-.02,.29-.02,.44,0l-1.2-.16c.12,.02,.24,.05,.35,.1l-1.07-.45c.09,.04,.18,.09,.26,.15l-.91-.7c.11,.09,.21,.18,.3,.3l-.7-.91c.12,.16,.21,.33,.29,.52l-.45-1.07c.1,.26,.16,.52,.2,.79l-.16-1.2c.03,.23,.03,.46,0,.69l.16-1.2c-.03,.21-.08,.4-.16,.59l.45-1.07c-.07,.15-.15,.29-.25,.43l.7-.91c-.12,.15-.26,.29-.41,.41l.91-.7c-.18,.14-.37,.25-.58,.34l1.07-.45c-.27,.11-.55,.19-.84,.23l1.2-.16c-.33,.04-.66,.04-.99,0l1.2,.16c-.3-.04-.6-.12-.88-.24l1.07,.45c-.26-.11-.49-.24-.71-.41l.91,.7c-.2-.16-.37-.33-.53-.52l.7,.91c-.14-.18-.25-.38-.34-.59l.45,1.07c-.09-.22-.15-.45-.19-.68l.16,1.2c-.04-.33-.03-.65,0-.97l-.16,1.2c.07-.47,.2-.91,.38-1.34l-.45,1.07c.2-.44,.44-.85,.73-1.23l-.7,.91c.25-.3,.51-.58,.82-.82l-.91,.7c.24-.18,.49-.32,.76-.44l-1.07,.45c.2-.08,.4-.14,.62-.17l-1.2,.16c.22-.03,.43-.03,.65-.01l-1.2-.16c.25,.03,.48,.1,.71,.19l-1.07-.45c.21,.1,.4,.21,.58,.35l-.91-.7c.18,.15,.33,.3,.47,.48l-.7-.91c.18,.24,.33,.5,.45,.77l-.45-1.07c.14,.35,.24,.71,.29,1.09l-.16-1.2c.05,.42,.05,.83,0,1.24l.16-1.2c-.05,.34-.14,.66-.26,.98l.45-1.07c-.12,.27-.26,.53-.44,.77l.7-.91c-.14,.18-.3,.33-.48,.48l.91-.7c-.27,.2-.57,.34-.87,.47l1.07-.45c-.39,.16-.8,.29-1.22,.35l1.2-.16c-.25,.03-.49,.04-.73,0l1.2,.16c-.2-.03-.39-.08-.58-.15l1.07,.45c-.16-.07-.3-.15-.44-.26l.91,.7c-.16-.12-.3-.27-.42-.43l.7,.91c-.15-.2-.26-.41-.36-.64l.45,1.07c-.14-.35-.23-.71-.28-1.08l.16,1.2c-.08-.6-.07-1.22,.01-1.82l-.16,1.2c.09-.66,.26-1.31,.52-1.92l-.45,1.07c.19-.43,.42-.85,.7-1.22l-.7,.91c.18-.23,.38-.44,.61-.62l-.91,.7c.18-.14,.37-.26,.58-.35l-1.07,.45c.18-.07,.36-.12,.54-.15l-1.2,.16c.2-.03,.39-.03,.58,0l-1.2-.16c.23,.03,.46,.1,.68,.19l-1.07-.45c.3,.13,.57,.3,.83,.49l-.91-.7c.52,.4,.96,.89,1.36,1.41l-.7-.91c.32,.43,.64,.86,.86,1.35l-.45-1.07c.18,.42,.29,.86,.35,1.32l-.16-1.2c.07,.55,.06,1.1,0,1.65l.16-1.2c-.07,.48-.19,.94-.37,1.38l.45-1.07c-.14,.33-.31,.64-.52,.93l.7-.91c-.17,.22-.37,.42-.59,.6l.91-.7c-.2,.15-.41,.28-.64,.38l1.07-.45c-.21,.08-.43,.14-.65,.18l1.2-.16c-.32,.04-.64,.04-.97,0l1.2,.16c-.28-.05-.54-.12-.8-.22l1.07,.45c-.24-.11-.47-.24-.68-.39l.91,.7c-.26-.2-.48-.43-.69-.69l.7,.91c-.22-.3-.4-.61-.54-.95l.45,1.07c-.18-.45-.3-.91-.37-1.39l.16,1.2c-.07-.56-.07-1.11,0-1.67l-.16,1.2c.07-.44,.17-.86,.34-1.27l-.45,1.07c.14-.33,.3-.63,.51-.91l-.7,.91c.18-.23,.37-.43,.6-.61l-.91,.7c.22-.17,.46-.3,.71-.42l-1.07,.45c.32-.13,.65-.22,.99-.27l-1.2,.16c.35-.04,.69-.04,1.04,0l-1.2-.16c.48,.06,.93,.19,1.38,.37l-1.07-.45c.49,.21,.94,.48,1.37,.8l-.91-.7c.38,.31,.72,.65,1.03,1.03l-.7-.91c.24,.32,.44,.65,.6,1.01l-.45-1.07c.13,.32,.23,.65,.28,1l-.16-1.2c.05,.39,.05,.78,0,1.17l.16-1.2c-.05,.32-.13,.63-.25,.93l.45-1.07c-.13,.31-.3,.6-.51,.87l.7-.91c-.21,.26-.44,.49-.7,.7l.91-.7c-.34,.26-.71,.48-1.11,.65l1.07-.45c-.47,.19-.95,.32-1.46,.39l1.2-.16c-.51,.06-1.01,.07-1.52,0l1.2,.16c-.47-.07-.92-.18-1.36-.37l1.07,.45c-.34-.15-.67-.34-.97-.56l.91,.7c-.28-.22-.52-.46-.74-.73l.7,.91c-.2-.26-.37-.54-.5-.83l.45,1.07c-.11-.27-.18-.55-.22-.83l.16,1.2c-.04-.38-.03-.76,.02-1.14l-.16,1.2c.08-.56,.24-1.1,.45-1.62l-.45,1.07c.25-.57,.56-1.11,.94-1.6l-.7,.91c.31-.39,.65-.74,1.04-1.04l-.91,.7c.29-.22,.6-.4,.93-.55l-1.07,.45c.29-.12,.59-.21,.91-.26l-1.2,.16c.29-.04,.56-.04,.85,0l-1.2-.16c.37,.06,.73,.16,1.08,.31l-1.07-.45c.28,.12,.54,.27,.78,.46l-.91-.7c.19,.15,.37,.32,.52,.52l-.7-.91c.16,.21,.3,.44,.41,.68l-.45-1.07c.13,.3,.21,.61,.25,.94l-.16-1.2c.05,.4,.04,.79,0,1.19l.16-1.2c-.07,.51-.21,1.01-.41,1.48l.45-1.07c-.22,.51-.5,.99-.84,1.44l.7-.91c-.28,.35-.59,.67-.94,.95l.91-.7c-.29,.23-.61,.42-.94,.57l1.07-.45c-.39,.17-.8,.26-1.23,.32l1.2-.16c-.37,.04-.73,.05-1.1,0l1.2,.16c-.37-.05-.72-.14-1.07-.29l1.07,.45c-.3-.13-.57-.29-.83-.49l.91,.7c-.28-.22-.52-.46-.74-.74l.7,.91c-.26-.34-.46-.7-.63-1.08l.45,1.07c-.17-.43-.29-.87-.35-1.33l.16,1.2c-.05-.44-.05-.87,0-1.31l-.16,1.2c.06-.44,.17-.87,.34-1.29l-.45,1.07c.17-.39,.38-.76,.63-1.1l-.7,.91c.31-.4,.66-.73,1.06-1.04l-.91,.7c.39-.29,.8-.53,1.24-.72l-1.07,.45c.35-.14,.71-.24,1.09-.29l-1.2,.16c.31-.03,.61-.03,.91,0l-1.2-.16c.29,.04,.56,.12,.83,.22l-1.07-.45c.26,.11,.5,.25,.73,.42l-.91-.7c.22,.18,.42,.37,.6,.59l-.7-.91c.17,.23,.32,.48,.44,.74l-.45-1.07c.13,.32,.22,.65,.27,.99l-.16-1.2c.04,.37,.04,.74,0,1.12l.16-1.2c-.07,.47-.2,.92-.38,1.36l.45-1.07c-.23,.54-.53,1.05-.88,1.52l.7-.91c-.34,.44-.73,.83-1.16,1.18l.91-.7c-.4,.3-.82,.56-1.28,.76l1.07-.45c-.38,.16-.78,.27-1.19,.33l1.2-.16c-.29,.04-.58,.04-.88,0l1.2,.16c-.22-.03-.43-.09-.64-.17l1.07,.45c-.13-.06-.26-.13-.38-.22l.91,.7c-.13-.1-.24-.21-.34-.34l.7,.91c-.09-.12-.16-.25-.21-.38l.45,1.07c-.06-.15-.1-.3-.12-.46l.16,1.2c-.03-.27-.03-.53,0-.8l-.16,1.2c.07-.44,.2-.86,.37-1.27l-.45,1.07c.37-.86,.88-1.64,1.45-2.38l-.7,.91c.49-.62,1.02-1.19,1.63-1.67l-.91,.7c.35-.26,.71-.49,1.1-.67l-1.07,.45c.3-.12,.59-.22,.91-.26l-1.2,.16c.22-.02,.42-.03,.64,0l-1.2-.16c.2,.03,.38,.08,.56,.15l-1.07-.45c.15,.07,.28,.15,.41,.25l-.91-.7c.13,.1,.24,.22,.34,.35l-.7-.91c.12,.16,.22,.33,.3,.52l-.45-1.07c.09,.23,.15,.47,.19,.72l-.16-1.2c.04,.36,.03,.71-.01,1.06l.16-1.2c-.07,.46-.2,.9-.38,1.33l.45-1.07c-.29,.67-.67,1.27-1.11,1.85l.7-.91c-.47,.59-.98,1.15-1.57,1.61l.91-.7c-.29,.22-.59,.42-.93,.57l1.07-.45c-.2,.08-.4,.14-.61,.17l1.2-.16c-.14,.02-.27,.02-.41,0l1.2,.16c-.11-.02-.21-.04-.31-.08l1.07,.45c-.11-.05-.22-.11-.32-.18l.91,.7c-.1-.08-.18-.17-.26-.26l.7,.91c-.1-.14-.18-.28-.25-.44l.45,1.07c-.08-.21-.14-.43-.17-.66l.16,1.2c-.04-.32-.04-.64,0-.96l-.16,1.2c.05-.37,.15-.73,.29-1.08l-.45,1.07c.15-.34,.33-.66,.56-.95l-.7,.91c.21-.26,.44-.49,.71-.7l-.91,.7c.26-.2,.54-.36,.84-.49l-1.07,.45c.38-.16,.77-.26,1.18-.33l-1.2,.16c.39-.05,.77-.06,1.16-.01l-1.2-.16c.22,.04,.42,.09,.63,.17l-1.07-.45c.18,.08,.35,.18,.51,.3l-.91-.7c.13,.1,.24,.21,.34,.34l-.7-.91c.12,.16,.22,.33,.3,.51l-.45-1.07c.11,.27,.18,.54,.22,.83l-.16-1.2c.05,.42,.03,.83-.02,1.24l.16-1.2c-.08,.5-.2,.98-.39,1.44l.45-1.07c-.13,.28-.28,.55-.47,.79l.7-.91c-.16,.19-.33,.37-.52,.52l.91-.7c-.25,.19-.52,.35-.82,.47l1.07-.45c-.46,.18-.94,.29-1.43,.36l1.2-.16c-.6,.08-1.2,.1-1.81,.11l3.89,2.23c-.07-.13-.14-.26-.2-.39l.45,1.07c-.14-.34-.23-.69-.28-1.05l.16,1.2c-.07-.52-.05-1.05,.01-1.57l-.16,1.2c.1-.73,.3-1.43,.58-2.11l-.45,1.07c.27-.63,.6-1.23,1.01-1.78l-.7,.91c.29-.37,.6-.71,.97-1l-.91,.7c.25-.19,.51-.35,.79-.47l-1.07,.45c.22-.09,.44-.15,.68-.18l-1.2,.16c.18-.02,.36-.02,.54,0l-1.2-.16c.19,.03,.36,.08,.54,.14l-1.07-.45c.22,.09,.42,.21,.61,.35l-.91-.7c.28,.22,.52,.47,.75,.75l-.7-.91c.12,.17,.23,.34,.31,.53l-.45-1.07c.09,.22,.14,.44,.18,.68l-.16-1.2c.04,.33,.03,.66-.01,1l.16-1.2c-.08,.52-.23,1.01-.43,1.49l.45-1.07c-.27,.63-.62,1.21-1.04,1.75l.7-.91c-.37,.47-.77,.9-1.24,1.27l.91-.7c-.31,.24-.64,.45-1,.6l1.07-.45c-.23,.09-.47,.17-.71,.2l1.2-.16c-.19,.02-.37,.02-.55,0l1.2,.16c-.16-.03-.31-.07-.46-.13l1.07,.45c-.13-.06-.25-.13-.37-.22l.91,.7c-.15-.12-.27-.25-.39-.39l.7,.91c-.16-.2-.29-.42-.39-.65l.45,1.07c-.08-.21-.14-.42-.18-.64l.16,1.2c-.03-.24-.02-.48,0-.72l-.16,1.2c.05-.3,.13-.58,.25-.86l-.45,1.07c.16-.37,.37-.71,.61-1.03l-.7,.91c.36-.47,.78-.88,1.25-1.24l-.91,.7c.45-.35,.94-.64,1.47-.87l-1.07,.45c.36-.15,.72-.26,1.1-.31l-1.2,.16c.21-.02,.42-.03,.63,0l-1.2-.16c.15,.02,.3,.06,.44,.11l-1.07-.45c.12,.05,.23,.11,.33,.19l-.91-.7c.09,.07,.17,.15,.24,.24l-.7-.91c.09,.12,.15,.24,.21,.37l-.45-1.07c.07,.18,.11,.36,.14,.55l-.16-1.2c.05,.4,.03,.81-.02,1.21l.16-1.2c-.05,.34-.14,.66-.26,.98l.45-1.07c-.13,.31-.3,.6-.51,.87l.7-.91c-.18,.23-.39,.43-.62,.61l.91-.7c-.29,.22-.61,.41-.95,.55l1.07-.45c-.36,.14-.73,.24-1.12,.29l1.2-.16c-.37,.04-.73,.05-1.1,0l1.2,.16c-.29-.04-.57-.11-.84-.22l1.07,.45c-.18-.08-.36-.17-.52-.29l.91,.7c-.13-.1-.25-.22-.35-.35l.7,.91c-.07-.1-.13-.2-.19-.31l.45,1.07c-.06-.14-.09-.27-.12-.42l.16,1.2c-.02-.16-.02-.32,0-.48l-.16,1.2c.03-.21,.09-.41,.17-.61l-.45,1.07c.04-.08,.07-.17,.11-.25,.54-1.09,.79-2.26,.45-3.47-.29-1.04-1.09-2.18-2.07-2.69-1.04-.55-2.31-.83-3.47-.45-1.07,.35-2.17,1.02-2.69,2.07s-.89,2.08-.92,3.31c-.02,1.05,.26,2.19,.8,3.1,.89,1.52,2.45,2.65,4.16,3.06,1.5,.36,3.18,.36,4.65-.12,1.95-.63,3.44-1.76,4.63-3.41,.48-.68,.83-1.5,1.05-2.29,.24-.83,.37-1.76,.33-2.64-.09-2.19-1.01-4.27-2.94-5.44-2.57-1.55-5.97-.85-8.29,.84-2.45,1.78-4.68,4.47-4.5,7.69,.13,2.35,1.26,4.38,3.21,5.71,.94,.64,2.02,.89,3.13,.97,.18,.01,.34,.01,.52,0,.55-.05,1.16-.1,1.69-.28,1.53-.52,2.91-1.4,4.01-2.59,1.21-1.32,2.01-2.69,2.66-4.34,.62-1.56,.7-3.23,.4-4.87-.13-.73-.44-1.46-.84-2.08-.67-1.04-1.56-1.94-2.61-2.6s-2.1-.9-3.27-1c-.4-.03-.73,.02-1.14,.08s-.81,.09-1.2,.23c-1.18,.43-1.95,.91-2.92,1.72-.64,.54-1.14,1.23-1.64,1.9-.83,1.13-1.43,2.51-1.8,3.86-.48,1.75-.52,3.48-.19,5.26,.15,.8,.49,1.59,.9,2.29,.79,1.36,2.31,2.24,3.89,2.23,.81,0,1.6-.08,2.41-.19,1.15-.16,2.02-.41,3.1-.9,1.97-.88,3.22-2.7,3.95-4.65,.34-.92,.47-1.95,.53-2.92,.03-.47-.04-.91-.1-1.38s-.1-.9-.26-1.33c-.48-1.33-1.17-2.41-2.29-3.28-.98-.76-2.05-1.19-3.27-1.35-3.42-.46-7.09,1.16-8.75,4.28-.69,1.29-1.09,2.68-1.1,4.15-.01,1.29,.32,2.76,1.05,3.85,1.16,1.71,2.91,2.78,5.02,2.79,1.95,0,3.59-.97,5.03-2.17,.49-.41,.93-.88,1.34-1.38,.67-.82,1.35-1.67,1.81-2.64,.96-2.05,1.43-4.15,.91-6.39-.26-1.13-.86-2.06-1.59-2.93s-1.73-1.38-2.78-1.77c-.37-.14-.73-.17-1.12-.22-.44-.06-.81-.12-1.24-.08-1.31,.13-2.32,.4-3.51,1.03-1.93,1.03-3.44,2.84-4.63,4.64-1.04,1.56-1.65,3.26-1.84,5.12-.08,.73,.03,1.52,.22,2.22,.27,1,.81,1.89,1.51,2.66,1.21,1.32,2.93,1.87,4.67,1.98,.72,.05,1.48-.09,2.17-.24,.75-.16,1.48-.5,2.16-.82,1.14-.54,2.22-1.4,3.02-2.38,.57-.7,1.16-1.42,1.56-2.24,.66-1.36,.99-2.49,1.15-3.98,.22-1.99-.45-4.01-1.66-5.58-.63-.82-1.37-1.54-2.3-2.03-1.17-.62-2.19-.87-3.5-.98-.27-.02-.53-.02-.8,.01-.65,.07-1.35,.13-1.98,.34-1.39,.45-2.4,1.09-3.53,1.99-1.42,1.12-2.35,2.68-2.94,4.37s-.51,3.37-.2,5.04,1.19,3.11,2.28,4.33c.52,.59,1.19,1.09,1.87,1.49s1.51,.77,2.32,.92c2.15,.4,4.16,.17,6.14-.78,1.48-.71,2.6-1.95,3.53-3.26,.74-1.02,1.29-2.28,1.53-3.51,.31-1.57,.41-3.24-.16-4.77-.68-1.83-1.87-3.47-3.67-4.36-1.21-.6-2.26-.89-3.61-1-.25-.02-.49-.01-.74,.02-.62,.07-1.27,.12-1.86,.32-1.07,.37-1.84,.79-2.71,1.46s-1.5,1.39-2.2,2.31c-.34,.45-.64,.93-.87,1.44-.36,.79-.74,1.62-.91,2.47-.43,2.1-.3,4.1,.69,6.03,.36,.71,.89,1.37,1.45,1.92s1.23,1.07,1.93,1.44c1.46,.77,3.04,1.18,4.69,1.19s3.21-.42,4.71-1.14,2.63-1.87,3.47-3.19,1.32-3.17,1.18-4.77c-.19-2.24-1.06-4.19-2.62-5.82-1.25-1.31-3.02-2.36-4.79-2.8-2.15-.53-4.39-.32-6.34,.74-1.83,1-2.96,2.69-3.67,4.59-.47,1.25-.63,2.71-.47,4.04,.1,.85,.19,1.7,.49,2.5,.47,1.24,.93,2.05,1.77,3.07,.51,.63,1.19,1.17,1.89,1.57,1.13,.65,2.17,.86,3.43,1.01,.25,.03,.51,.05,.76,.03,.6-.05,1.25-.1,1.83-.28,1.16-.37,2.09-.92,2.99-1.73,1.18-1.07,2.03-2.69,2.39-4.22,.4-1.7,.41-3.39,.02-5.09s-1.34-3-2.4-4.32c-.7-.87-1.57-1.63-2.51-2.21-2.14-1.31-4.99-1.45-7.15-.1-1.89,1.18-3.01,2.99-3.76,5.03-.34,.92-.45,1.88-.56,2.84-.07,.56-.08,1.12-.02,1.68,.15,1.38,.36,2.37,.99,3.62,.53,1.05,1.42,1.94,2.41,2.56s2.34,.98,3.55,.97c1.48-.01,2.69-.45,4.02-1.05,3.51-1.59,4.81-6,3.86-9.52-.51-1.91-1.76-3.69-3.49-4.69-2.21-1.28-4.8-1.17-7.03-.02-.54,.28-1.01,.69-1.47,1.06-.23,.18-.44,.38-.63,.6-.58,.67-1.16,1.4-1.54,2.22-.91,1.95-1.43,4.16-.8,6.29,.34,1.15,.92,2.11,1.72,3,.52,.58,1.2,1.1,1.91,1.44,1.84,.89,3.73,1.14,5.73,.7,.2-.04,.39-.11,.58-.18,.53-.2,1.08-.4,1.55-.72,.94-.63,1.74-1.38,2.3-2.37,1.22-2.15,1.07-4.76-.04-6.92-1-1.94-3.26-3.33-5.47-3.14s-4.29,1.34-5.4,3.34c-1.24,2.23-1.01,4.89,.54,6.89,.81,1.05,1.85,1.89,3.16,2.25,1.38,.38,2.89,.17,4.13-.56,1.61-.95,2.71-2.77,3.07-4.59s.36-3.65-.38-5.41c-1.07-2.54-3.6-4.28-6.37-4.37-1.25-.04-2.62,.39-3.69,1.02-.85,.5-1.66,1.18-2.27,1.96-.44,.41-.75,.89-.93,1.45-.28,.54-.41,1.11-.39,1.73,0,1.1,.49,2.42,1.32,3.18s1.98,1.37,3.18,1.32c1.11-.05,2.46-.4,3.18-1.32h0Z"/><path class="j" d="M1842.33,472.54c.15-2.78-1.53-5.5-4.05-6.66-2.46-1.14-5.01-1.24-7.65-.78-2.31,.4-4.28,1.64-5.7,3.48-1.74,2.25-2.46,4.88-2.73,7.67-.23,2.31,.04,4.84,.83,7.02,.89,2.46,2.24,4.5,4.39,6.02,3.24,2.29,7.54,1.71,10.85-.06,2.98-1.6,5.61-4.4,7.13-7.42,1.88-3.75,2.38-7.87,.52-11.73-.9-1.87-2.58-3.41-4.33-4.48-1.31-.8-2.82-1.48-4.35-1.71-2.07-.31-3.89-.14-5.8,.76-1.42,.67-2.47,1.82-3.37,3.07-1.52,2.11-2.09,4.95-2.19,7.5-.11,2.81,.51,5.55,1.67,8.09s3.4,4.67,6.1,5.38c3.7,.97,7.12-.7,9.92-2.99,3.59-2.93,5.14-8.5,3.45-12.84-.94-2.43-2.56-4.66-5-5.77-1.45-.66-2.93-1.13-4.55-1.12-1.5,0-2.8,.43-4.14,1.04-2.03,.92-3.67,2.52-5.02,4.26-1.5,1.94-2.53,4.14-2.86,6.58-.38,2.8,.37,5.66,2.44,7.68,1.57,1.54,3.8,2.55,6.03,2.38,3.7-.27,7.12-2.71,8.79-6.01,.97-1.91,1.45-3.96,.99-6.09-.53-2.42-2.39-4.08-4.64-4.91-1.89-.7-4.64-.7-6.52-.02-2.68,.97-4.74,2.88-6.38,5.16-1.55,2.17-2.48,5.19-1.68,7.82,1.12,3.67,5.1,6.06,8.82,4.56,2.84-1.15,5.15-3.36,6.11-6.31,.94-2.9-1.55-5.58-4.34-5.7-1.87-.08-3.67,.36-5.34,1.18-2.12,1.04-2.87,4.22-1.61,6.16,1.4,2.17,3.89,2.73,6.16,1.61,.12-.06,.24-.12,.37-.17l-1.07,.45c.48-.18,.97-.29,1.47-.35l-1.2,.16c.41-.04,.81-.06,1.22-.04l-4.34-5.7c-.02,.08-.05,.16-.08,.24l.45-1.07c-.18,.41-.41,.79-.69,1.14l.7-.91c-.36,.44-.75,.83-1.2,1.18l.91-.7c-.32,.23-.64,.43-.99,.6l1.07-.45c-.29,.12-.57,.21-.88,.26l1.2-.16c-.2,.02-.38,.02-.58,0l1.2,.16c-.19-.03-.37-.08-.55-.15l1.07,.45c-.14-.07-.26-.14-.39-.23l.91,.7c-.18-.15-.33-.3-.47-.49l.7,.91c-.11-.16-.2-.31-.29-.49l.45,1.07c-.11-.26-.18-.52-.22-.8l.16,1.2c-.03-.29-.03-.57,0-.85l-.16,1.2c.06-.46,.19-.9,.36-1.34l-.45,1.07c.29-.68,.67-1.3,1.11-1.9l-.7,.91c.56-.73,1.2-1.38,1.93-1.95l-.91,.7c.48-.36,.99-.68,1.54-.92l-1.07,.45c.27-.11,.55-.19,.84-.23l-1.2,.16c.75-.09,1.51-.13,2.27-.05l-1.2-.16c.41,.06,.8,.15,1.18,.31l-1.07-.45c.2,.09,.38,.19,.56,.32l-.91-.7c.15,.12,.29,.25,.41,.4l-.7-.91c.11,.15,.2,.3,.28,.47l-.45-1.07c.08,.2,.14,.4,.17,.61l-.16-1.2c.04,.31,.03,.62,0,.93l.16-1.2c-.07,.44-.2,.85-.37,1.26l.45-1.07c-.25,.57-.57,1.1-.95,1.59l.7-.91c-.4,.51-.85,.96-1.36,1.36l.91-.7c-.44,.34-.91,.63-1.43,.85l1.07-.45c-.37,.15-.75,.26-1.14,.32l1.2-.16c-.32,.04-.64,.04-.96,0l1.2,.16c-.29-.04-.58-.12-.85-.23l1.07,.45c-.29-.13-.56-.29-.82-.48l.91,.7c-.29-.23-.55-.49-.79-.78l.7,.91c-.2-.27-.36-.54-.5-.84l.45,1.07c-.16-.39-.27-.78-.32-1.19l.16,1.2c-.05-.48-.05-.95,.01-1.43l-.16,1.2c.1-.71,.3-1.4,.58-2.06l-.45,1.07c.37-.85,.84-1.64,1.4-2.38l-.7,.91c.6-.77,1.27-1.47,2.04-2.07l-.91,.7c.56-.42,1.14-.78,1.79-1.06l-1.07,.45c.42-.17,.85-.29,1.3-.36l-1.2,.16c.36-.04,.7-.04,1.06,0l-1.2-.16c.55,.07,1.07,.21,1.59,.41l-1.07-.45c.47,.2,.89,.44,1.3,.75l-.91-.7c.38,.3,.71,.64,1.01,1.02l-.7-.91c.29,.39,.52,.8,.72,1.24l-.45-1.07c.24,.59,.41,1.19,.49,1.82l-.16-1.2c.08,.65,.07,1.29,0,1.93l.16-1.2c-.09,.66-.26,1.29-.51,1.9l.45-1.07c-.26,.62-.6,1.2-1.01,1.74l.7-.91c-.42,.52-.89,.96-1.42,1.37l.91-.7c-.7,.54-1.44,1.01-2.26,1.36l1.07-.45c-.45,.18-.92,.32-1.41,.4l1.2-.16c-.4,.05-.79,.06-1.19,.01l1.2,.16c-.35-.05-.68-.14-1-.27l1.07,.45c-.34-.15-.66-.33-.95-.56l.91,.7c-.39-.3-.73-.65-1.03-1.04l.7,.91c-.42-.56-.76-1.17-1.03-1.82l.45,1.07c-.41-.99-.67-2.03-.82-3.09l.16,1.2c-.16-1.21-.17-2.44-.01-3.65l-.16,1.2c.12-.9,.34-1.79,.69-2.63l-.45,1.07c.22-.52,.49-1.01,.83-1.46l-.7,.91c.26-.34,.55-.64,.89-.9l-.91,.7c.27-.21,.57-.38,.88-.52l-1.07,.45c.33-.14,.67-.23,1.02-.28l-1.2,.16c.42-.05,.83-.05,1.25,0l-1.2-.16c.63,.09,1.23,.27,1.81,.51l-1.07-.45c.79,.34,1.54,.76,2.23,1.27l-.91-.7c.48,.38,.91,.79,1.29,1.28l-.7-.91c.31,.41,.57,.86,.78,1.33l-.45-1.07c.22,.54,.37,1.09,.44,1.66l-.16-1.2c.08,.66,.06,1.32-.02,1.98l.16-1.2c-.13,.89-.39,1.76-.74,2.59l.45-1.07c-.46,1.07-1.06,2.06-1.77,2.98l.7-.91c-.71,.91-1.52,1.73-2.43,2.45l.91-.7c-.76,.59-1.58,1.09-2.47,1.47l1.07-.45c-.58,.24-1.18,.41-1.8,.51l1.2-.16c-.52,.07-1.04,.08-1.56,0l1.2,.16c-.41-.06-.8-.17-1.18-.33l1.07,.45c-.36-.16-.7-.36-1.01-.59l.91,.7c-.41-.32-.76-.68-1.08-1.09l.7,.91c-.4-.53-.71-1.1-.97-1.71l.45,1.07c-.4-.98-.65-2-.8-3.05l.16,1.2c-.15-1.23-.16-2.47,0-3.7l-.16,1.2c.13-.95,.36-1.87,.72-2.76l-.45,1.07c.26-.62,.58-1.19,.99-1.73l-.7,.91c.29-.36,.6-.68,.96-.97l-.91,.7c.26-.19,.55-.34,.85-.47l-1.07,.45c.61-.25,1.25-.4,1.9-.49l-1.2,.16c.8-.1,1.61-.11,2.42,0l-1.2-.16c.49,.08,.96,.19,1.43,.38l-1.07-.45c.3,.13,.59,.29,.85,.49l-.91-.7c.18,.15,.34,.31,.49,.5l-.7-.91c.11,.16,.21,.33,.29,.51l-.45-1.07c.08,.19,.13,.39,.16,.59l-.16-1.2c.03,.23,.03,.45,.02,.68-.12,2.35,2.16,4.6,4.5,4.5,2.54-.11,4.37-1.98,4.5-4.5h0Z"/></g></g><g id="c"/><g id="d"/><g id="e"/><g id="f"/><g id="g"/><g id="h"/><g id="i"/></svg>