<?xml version="1.0" encoding="UTF-8"?><svg xmlns="http://www.w3.org/2000/svg" viewBox="0 0 3834 823"><defs><style>.j{fill:#fff;}</style></defs><g id="a"/><g id="b"><g><path class="j" d="M1226.66,261.29c-2.71-26.44-4.77-53.35-15.58-77.98-11.43-26.05-34.64-45.89-61.83-54.06-26.81-8.05-55.38-2.5-79.38,11.09-24.14,13.67-44.19,34.83-58.19,58.65-12.77,21.73-21.75,47.82-21.02,73.28,.6,20.89,8.58,39.9,22,55.76,13.12,15.5,30.52,27.18,47.9,37.4,18.66,10.96,38.12,20.47,57.04,30.97,9.31,5.17,18.54,10.53,27.34,16.52,2.28,1.55,4.53,3.15,6.75,4.78,1,.74,1.99,1.49,2.98,2.24,.25,.19,.5,.38,.74,.57-.01-.01-1.37-1.07-.58-.45,.66,.52,1.32,1.03,1.98,1.56,4.34,3.46,8.56,7.06,12.65,10.79,8.55,7.79,16.6,16.14,24.1,24.95,1.89,2.22,3.74,4.46,5.56,6.74,.84,1.05,1.67,2.11,2.5,3.18-1.11-1.42-.02-.02,.44,.59s.95,1.26,1.42,1.89c3.5,4.69,6.84,9.49,10.03,14.4,6.38,9.82,12.11,20.07,17.02,30.7,.55,1.2,1.1,2.4,1.63,3.61,.31,.7,.61,1.41,.92,2.11,.09,.2,.52,1.25,.06,.14s.09,.22,.18,.44c1.07,2.62,2.1,5.26,3.07,7.92,1.95,5.34,3.67,10.77,5.13,16.27,1.4,5.29,2.56,10.64,3.42,16.04,.1,.62,.19,1.23,.29,1.85,.17,1.15,.41,1.46,.02,.07,.37,1.33,.36,2.93,.5,4.31,.27,2.65,.47,5.31,.58,7.97,.23,5.26,.16,10.54-.26,15.8-.1,1.3-.23,2.61-.38,3.91-.07,.6-.15,1.2-.22,1.8-.12,1.01,.11-.9,.12-.9-.03,0-.21,1.4-.22,1.49-.4,2.58-.89,5.14-1.47,7.69-1.16,5.11-2.7,10.14-4.59,15.03-.22,.57-.45,1.13-.68,1.7-.77,1.93,.5-1.08-.17,.39-.55,1.21-1.09,2.43-1.68,3.63-1.18,2.43-2.45,4.81-3.8,7.14-1.44,2.47-2.97,4.89-4.6,7.24-.74,1.06-1.49,2.11-2.26,3.15-.54,.72-1.13,1.44-.18,.26-.55,.69-1.09,1.38-1.65,2.06-3.76,4.59-7.87,8.89-12.24,12.89-2.31,2.11-4.7,4.15-7.15,6.1-.51,.41-1.76,1.35-.52,.42-.7,.53-1.4,1.06-2.1,1.58-1.33,.98-2.68,1.94-4.05,2.88-3.69,2.54-7.54,4.84-11.54,6.87-1.91,.97-3.87,1.83-5.82,2.71-.52,.23,1.96-.79,.33-.15-.46,.18-.92,.37-1.38,.55-1.07,.42-2.16,.82-3.24,1.2-4.06,1.43-8.2,2.6-12.4,3.55-2.11,.48-4.24,.89-6.38,1.25-1.07,.18-2.15,.34-3.23,.5-1.62,.24,2.02-.24,.39-.06-.67,.07-1.34,.16-2.01,.23-4.4,.48-8.82,.72-13.24,.77s-9-.12-13.48-.48c-2.27-.18-4.54-.41-6.8-.69-.37-.05-2.56-.32-.9-.11s-.27-.04-.64-.1c-1.14-.17-2.28-.34-3.41-.53-9.3-1.55-18.48-3.85-27.44-6.78-4.5-1.47-8.96-3.1-13.35-4.87-.59-.24-1.18-.49-1.78-.73-1.53-.63,1.65,.71,.13,.06-1.18-.51-2.35-1.02-3.52-1.54-2.17-.97-4.33-1.98-6.46-3.03-8.52-4.17-16.77-8.9-24.66-14.16-1.96-1.3-3.89-2.64-5.8-4.01-.95-.68-1.9-1.37-2.84-2.07-.43-.32-.86-.64-1.29-.97-.32-.24-2.21-1.66-1.01-.77s-.3-.24-.57-.45c-.42-.33-.84-.67-1.26-1-.97-.78-1.94-1.57-2.89-2.37-1.76-1.47-3.5-2.98-5.21-4.51-6.73-6.04-13.03-12.58-18.72-19.62-.58-.71-1.16-1.8-1.87-2.37,.81,.63,1.01,1.33,.19,.23-.4-.53-.8-1.06-1.19-1.6-1.27-1.73-2.49-3.49-3.68-5.27-2.32-3.5-4.49-7.11-6.45-10.82-.96-1.82-1.88-3.66-2.74-5.53-.43-.93-.82-1.86-1.24-2.79-.24-.53,.83,2.03,.18,.42-.2-.51-.41-1.01-.61-1.52-1.48-3.79-2.74-7.67-3.73-11.61-.48-1.91-.9-3.83-1.26-5.77-.16-.89-.31-1.78-.45-2.67-.24-1.61,0-.79,.04,.38-.02-.52-.13-1.05-.18-1.57-.42-3.88-.56-7.79-.42-11.69,.08-2.04,.25-4.06,.47-6.09,.16-1.46,.11-.32-.09,.59,.1-.44,.13-.91,.2-1.35,.17-1.06,.36-2.11,.57-3.16,.8-3.98,1.91-7.9,3.3-11.71,.33-.9,.69-1.79,1.04-2.69,.53-1.38-.87,1.94-.06,.13,.23-.52,.46-1.05,.7-1.56,.91-1.97,1.89-3.9,2.93-5.79,2.25-4.07,4.82-7.94,7.61-11.67,1.06-1.43-.42,.51-.06,.08s.69-.87,1.04-1.3c.77-.95,1.56-1.89,2.36-2.81,1.59-1.84,3.24-3.62,4.94-5.36,3.7-3.8,7.64-7.35,11.73-10.73,3.65-3.01,3.35-9.66,0-12.73-3.88-3.56-8.84-3.21-12.73,0-15.9,13.1-29.17,29.37-36.52,48.76-6.17,16.27-6.88,34.17-3.1,51.07,3.76,16.82,12.05,32.62,22.46,46.25,11.85,15.52,26.08,28.72,41.99,40.02,16.1,11.44,33.83,20.54,52.37,27.31,18.14,6.63,37.35,10.74,56.67,11.53,18.14,.74,36.87-1.66,53.76-8.51,21.69-8.79,40.55-24.03,54.7-42.59,13.84-18.15,21.57-39.97,23.39-62.65,1.79-22.35-2.45-45.17-9.99-66.18-8.08-22.51-19.72-43.65-33.86-62.91-14-19.08-30.12-36.64-48.48-51.62-17.3-14.12-36.43-25.29-56.07-35.81-18.89-10.12-38.14-19.68-56.23-31.21-4.32-2.75-8.57-5.62-12.69-8.65-.91-.67-1.82-1.36-2.72-2.04-1.24-.94,1.43,1.14-.18-.14-.51-.41-1.02-.81-1.53-1.22-1.86-1.5-3.69-3.05-5.48-4.64-3.55-3.16-6.94-6.5-10.08-10.07-.7-.79-1.38-1.59-2.06-2.4-.39-.47-.77-.95-1.16-1.43-.16-.2-.32-.41-.49-.62-.72-.88,1.1,1.51,.45,.58-1.3-1.85-2.65-3.64-3.87-5.54-1.21-1.89-2.35-3.82-3.4-5.8-.53-.99-1.03-1.99-1.51-3.01-.22-.47-.44-.94-.65-1.41-.05-.12-.43-.94-.42-.95,0,0,.82,2.02,.3,.71-1.69-4.29-3.09-8.66-4.02-13.18-.24-1.16-.45-2.33-.64-3.5-.06-.35-.34-2.25-.12-.73s-.07-.64-.11-1.03c-.27-2.59-.42-5.19-.45-7.79-.03-2.63,.06-5.26,.25-7.89,.09-1.26,.21-2.52,.35-3.78,.12-1.05,.15-2.28,.04-.5,.05-.76,.22-1.53,.34-2.28,.99-6.2,2.49-12.31,4.34-18.3,.99-3.19,2.06-6.34,3.25-9.46,.53-1.38,1.08-2.75,1.64-4.12-.67,1.63,.16-.34,.42-.93,.35-.8,.72-1.59,1.08-2.39,2.78-5.98,5.96-11.77,9.48-17.35,1.85-2.94,3.8-5.82,5.84-8.63,.45-.63,.91-1.25,1.38-1.87,.21-.28,1.47-1.94,.94-1.25s1.01-1.28,1.22-1.53c.57-.71,1.14-1.41,1.72-2.11,4.3-5.17,8.92-10.09,13.84-14.67,2.54-2.37,5.16-4.65,7.85-6.83,.6-.48,1.2-.96,1.8-1.43-1.2,.96,.13-.1,.61-.46,1.42-1.07,2.87-2.11,4.34-3.12,5.37-3.7,11.01-7.02,16.9-9.83,.67-.32,1.34-.64,2.02-.94,.27-.12,2.6-1.14,1.64-.73s1-.4,1.32-.53c.8-.32,1.6-.62,2.41-.92,3.09-1.14,6.24-2.12,9.43-2.95,3.05-.79,6.14-1.43,9.26-1.9,.36-.05,.72-.11,1.08-.16-.08,.01-1.65,.19-.59,.09,.84-.08,1.68-.19,2.53-.27,1.57-.14,3.14-.24,4.72-.29,3.17-.11,6.34-.04,9.5,.21,.86,.07,1.71,.15,2.57,.24,.79,.09,2.15,.34,.55,.06,1.72,.3,3.44,.56,5.15,.93,3.24,.69,6.44,1.58,9.57,2.64,1.49,.51,2.95,1.07,4.41,1.64,.31,.12,1.57,.69,.05,.01,.37,.16,.73,.32,1.1,.49,.86,.39,1.72,.79,2.56,1.2,3.25,1.59,6.41,3.37,9.47,5.31,1.52,.96,3,1.97,4.46,3.01,.66,.47,1.3,.96,1.95,1.44,.83,.61-.13-.09-.24-.19,.41,.33,.82,.66,1.23,.99,2.67,2.19,5.21,4.54,7.59,7.03,1.03,1.07,2.02,2.17,2.99,3.3,.56,.65,1.1,1.31,1.64,1.97,.1,.12,.87,1.08,.2,.23s.28,.37,.4,.53c3.69,4.96,6.83,10.33,9.43,15.94,.35,.75,.68,1.51,1.02,2.26,.71,1.6-.45-1.17,.19,.47,.61,1.54,1.2,3.09,1.76,4.65,1.03,2.92,1.95,5.88,2.77,8.87,1.67,6.07,2.95,12.25,3.98,18.46,.26,1.58,.51,3.15,.75,4.73,.11,.73,.21,1.46,.32,2.2,.05,.34,.34,2.5,.19,1.38-.16-1.23,.04,.35,.08,.65,.05,.37,.09,.74,.14,1.11,.09,.74,.18,1.48,.27,2.22,.19,1.61,.38,3.21,.56,4.82,.71,6.34,1.32,12.68,1.97,19.03,.48,4.67,3.8,9.23,9,9,4.46-.2,9.51-3.98,9-9h0Z"/><path class="j" d="M1296.43,515.91c.34,.17,.65,.36,.95,.59l-1.82-1.41c.54,.42,1,.91,1.42,1.44l-1.41-1.82c.87,1.13,1.52,2.4,2.07,3.71l-.91-2.15c1.82,4.35,2.73,9.08,3.49,13.7,.28,1.68,.52,3.36,.75,5.05l-.32-2.39c1.47,10.98,2.22,22.05,3.04,33.09,.92,12.38,1.82,24.76,3.24,37.09,1.38,11.88,3,23.89,6.34,35.41,1.46,5.02,3.3,10,5.69,14.66,2,3.89,4.62,7.75,7.9,10.66s7.6,5.57,12.2,6.31c5.69,.91,11.23,.3,16.47-2.18,4.38-2.08,7.76-6.01,10.47-9.91,2.96-4.27,5.01-9.22,6.8-14.07,4.18-11.32,6.38-23.37,8.12-35.28,2.18-14.87,3.56-29.83,4.48-44.82,.83-13.56,1.29-27.15,1.53-40.74,.17-9.81,.21-19.62,.19-29.43,0-1.46,0-2.92,0-4.37,0-4.49-3.42-8.25-7.8-8.84-1.92-.26-4.06-.01-5.74,1.07-1.84,1.18-3.79,3.12-4.14,5.38-3.69,23.95-.88,48.23,4.1,71.8,5.15,24.35,12.81,48.12,21.11,71.56,4.4,12.42,9.01,24.76,13.6,37.11l16.45-6.94c-.23-.4-.43-.79-.61-1.21l.91,2.15c-.28-.74-.47-1.47-.58-2.26l.32,2.39c-.29-2.48-.33-4.97-.91-7.41-1.1-4.58-6.55-7.75-11.07-6.29-4.77,1.54-7.46,6.16-6.29,11.07,.13,.55,.23,1.09,.31,1.65l-.32-2.39c.21,1.93,.3,3.83,.6,5.76s1.12,3.88,2.1,5.62c2.22,3.91,7.2,5.39,11.24,3.68,3.82-1.61,6.78-6.4,5.21-10.62-5.98-16.09-12-32.17-17.54-48.42-5.85-17.17-11.22-34.54-15.38-52.21-2.26-9.59-4.14-19.27-5.47-29.03l.32,2.39c-1.94-14.44-2.68-29.15-.77-43.63l-.32,2.39c.11-.8,.22-1.6,.35-2.39l-17.68-2.39c0,11.04,.02,22.07-.17,33.11-.28,16.77-.9,33.55-2.13,50.28-.73,9.83-1.67,19.64-2.97,29.41l.32-2.39c-1.59,11.78-3.6,23.63-7.18,34.98-.82,2.61-1.75,5.2-2.81,7.72l.91-2.15c-1.48,3.5-3.23,6.94-5.56,9.96l1.41-1.82c-1.09,1.4-2.31,2.69-3.71,3.79l1.82-1.41c-.94,.72-1.96,1.34-3.05,1.81l2.15-.91c-1.36,.57-2.82,.88-4.28,1.08l2.39-.32c-1.51,.19-3.03,.21-4.53,.02l2.39,.32c-1.33-.18-2.61-.54-3.85-1.05l2.15,.91c-1.31-.56-2.53-1.3-3.66-2.17l1.82,1.41c-1.49-1.16-2.78-2.53-3.94-4.01l1.41,1.82c-2.19-2.84-3.85-6.04-5.24-9.33l.91,2.15c-3.52-8.4-5.44-17.45-6.94-26.4-.49-2.91-.92-5.84-1.32-8.77l.32,2.39c-1.15-8.57-1.97-17.19-2.69-25.81-.71-8.57-1.31-17.15-1.97-25.72-.59-7.62-1.21-15.24-2.14-22.83-.81-6.59-1.64-13.31-3.51-19.71-1.65-5.65-4.15-11.15-9.14-14.57-.26-.18-.52-.34-.81-.48-2.19-1.08-4.52-1.57-6.94-.91-2.09,.57-4.35,2.19-5.38,4.14-2.14,4.06-1.28,10.1,3.23,12.31h0Z"/><path class="j" d="M1421.89,496.49c-1.88,10.37-1.11,20.67,.51,31.03,1.73,11.06,4.65,21.92,7.92,32.61,3.6,11.76,7.69,23.36,11.91,34.91,4.16,11.42,8.46,22.79,12.56,34.23,3.53,9.86,6.98,19.78,9.67,29.91,.29,1.1,.58,2.21,.85,3.31l17.36-4.79c-6.91-16.98-11.87-34.75-14.33-52.93l.32,2.39c-2.04-15.3-2.27-30.82-.25-46.14l-.32,2.39c1.73-12.85,5.05-25.45,10.06-37.42l-.91,2.15c3.68-8.7,8.3-17,14.07-24.49l-1.41,1.82c3.99-5.14,8.51-9.87,13.66-13.86l-1.82,1.41c3.73-2.86,7.75-5.31,12.08-7.14l-2.15,.91c3.48-1.45,7.11-2.48,10.85-3l-2.39,.32c3.43-.45,6.89-.46,10.32-.01l-2.39-.32c3.6,.49,7.1,1.47,10.46,2.87l-2.15-.91c4.16,1.76,8.01,4.1,11.59,6.84l-1.82-1.41c5.23,4.05,9.78,8.87,13.85,14.07,1.32,1.69,4.33,2.64,6.36,2.64,2.21,0,4.84-.98,6.36-2.64s2.74-3.97,2.64-6.36l-.32-2.39c-.43-1.52-1.2-2.85-2.31-3.97-11.12-14.21-26.62-25.62-45.14-26.69-16.14-.93-31.34,7.23-42.63,18.19-13.49,13.11-22.46,30.46-28.23,48.19-6.45,19.78-8.67,41.04-7.35,61.77,1.33,21.01,5.92,41.78,13.24,61.51,.87,2.35,1.78,4.68,2.73,7.01,.92,2.26,1.95,4.1,4.14,5.38,1.93,1.13,4.77,1.61,6.94,.91,4.75-1.54,7.49-6.17,6.29-11.07-4.25-17.32-10.76-34.08-16.94-50.77-7.01-18.96-14.16-37.93-19.77-57.37-2.81-9.75-5.26-19.66-6.62-29.72l.32,2.39c-.93-6.97-1.37-14.09-.45-21.08l-.32,2.39c.1-.76,.22-1.51,.36-2.26,.44-2.43,.38-4.74-.91-6.94-1.09-1.87-3.23-3.65-5.38-4.14-2.3-.52-4.89-.41-6.94,.91-1.87,1.21-3.72,3.1-4.14,5.38h0Z"/><path class="j" d="M1659.11,517.21c-6.03-5.67-13.09-10.4-21.12-12.69-6.97-1.99-14.51-1.94-21.48-.03-14.79,4.06-26.19,15.32-35.22,27.19-9.71,12.77-16.78,27.65-21.87,42.81-2.37,7.06-4.25,14.3-5.46,21.66-1.18,7.17-1.98,14.48-1.54,21.75,.21,3.53,.65,7.1,1.44,10.56,.84,3.7,2.16,7.32,3.5,10.85,3.01,7.93,6.64,15.35,11.88,22.04,3.4,4.34,7.77,8.31,12.87,10.53,3.45,1.51,6.46,2.32,10.21,2.71,2.78,.29,5.62-.08,8.35-.58,5.13-.95,10.14-3.4,14.43-6.32,5.15-3.5,9.81-7.69,13.97-12.31,9.44-10.49,17.04-22.63,23.33-35.22,6.78-13.56,12.34-27.85,16.16-42.53,1.89-7.24,3.24-14.57,4.16-21.99,.73-5.88,1.06-11.84,.64-17.76-.23-3.27-.65-6.54-1.32-9.75-.42-2.04-2.31-4.41-4.14-5.38s-3.69-1.34-5.74-1.07c-1.89,.25-3.84,1.03-5.17,2.48-1.52,1.65-2.88,4.03-2.64,6.36,2.11,19.86,6.13,39.44,11.51,58.67,5.23,18.69,11.65,37.03,18.63,55.14,3.85,9.98,7.88,19.89,12,29.76,.94,2.26,1.93,4.09,4.14,5.38,1.93,1.13,4.77,1.61,6.94,.91s4.28-2.05,5.38-4.14,1.82-4.76,.91-6.94c-6.93-16.61-13.61-33.33-19.61-50.31-6.13-17.35-11.57-34.97-15.71-52.91-2.3-9.96-4.19-20.01-5.56-30.14l.32,2.39c-.35-2.6-.66-5.21-.94-7.81l-17.68,2.39c.25,1.21,.45,2.44,.62,3.67l-.32-2.39c.99,7.56,.57,15.26-.44,22.79l.32-2.39c-1.67,12.29-4.98,24.35-9.21,36-1.25,3.45-2.59,6.87-4.02,10.25l.91-2.15c-4.68,11.07-10.22,21.83-16.9,31.83-1.74,2.61-3.56,5.16-5.47,7.64l1.41-1.82c-4.35,5.62-9.18,10.96-14.8,15.33l1.82-1.41c-2.86,2.21-5.93,4.16-9.26,5.58l2.15-.91c-2.17,.91-4.43,1.59-6.76,1.9l2.39-.32c-1.79,.23-3.59,.25-5.38,.01l2.39,.32c-1.71-.23-3.38-.69-4.97-1.35l2.15,.91c-1.87-.79-3.61-1.84-5.21-3.08l1.82,1.41c-2.26-1.76-4.22-3.85-5.97-6.11l1.41,1.82c-3.42-4.45-6.01-9.48-8.19-14.64l.91,2.15c-2.47-5.89-4.75-12.06-5.61-18.42l.32,2.39c-.88-6.71-.53-13.55,.37-20.24l-.32,2.39c1.3-9.55,3.78-18.93,7.04-27.99,.97-2.69,2.01-5.36,3.12-7.99l-.91,2.15c3.54-8.36,7.76-16.45,12.82-24,1.39-2.08,2.85-4.11,4.37-6.09l-1.41,1.82c4.12-5.33,8.75-10.3,14.07-14.44l-1.82,1.41c3.3-2.55,6.86-4.76,10.7-6.4l-2.15,.91c2.85-1.2,5.83-2.06,8.9-2.49l-2.39,.32c2.65-.35,5.31-.36,7.96-.02l-2.39-.32c2.86,.39,5.64,1.17,8.3,2.29l-2.15-.91c3.3,1.41,6.36,3.3,9.19,5.49l-1.82-1.41c1.42,1.11,2.78,2.28,4.09,3.52,3.43,3.23,9.37,3.66,12.73,0s3.66-9.28,0-12.73h0Z"/><path class="j" d="M1856.98,177.28c2.75,15.93,5.23,31.91,7.47,47.92,1.15,8.21,1.94,14.11,3.02,22.72,1.04,8.24,2.03,16.49,2.97,24.74,3.72,32.6,6.73,65.28,9.42,97.98,2.73,33.08,4.67,66.16,5.22,99.35,.54,32.45,.08,64.9-.72,97.34-.81,32.73-1.95,65.45-2.74,98.19-.1,4.12-.19,8.23-.28,12.35-.1,4.71,4.21,9.21,9,9s8.89-3.95,9-9c.7-32.8,1.83-65.59,2.71-98.39,.88-32.74,1.5-65.49,1.18-98.24-.33-33.14-1.79-66.22-4.44-99.25-2.65-32.91-5.56-65.8-9.15-98.62s-7.91-66.1-13.29-98.94c-.65-3.98-1.32-7.96-2.01-11.93-.8-4.65-6.76-7.68-11.07-6.29-5.01,1.62-7.15,6.09-6.29,11.07h0Z"/><path class="j" d="M1898.14,432.6c5.48,4.02,12.96,5.26,19.6,4.44,8.64-1.07,16.61-4.19,24.29-8.25,8.33-4.4,16.12-9.81,23.59-15.53,9.45-7.23,18.5-14.93,27.24-23,9.04-8.35,17.78-17.03,26.31-25.91s17.34-18.52,25.71-28.06c8.05-9.18,15.91-18.51,23.6-27.99,7.27-8.97,14.39-18.08,21.29-27.33,5.23-7.01,10.34-14.11,15.17-21.4,1.83-2.77,3.62-5.57,5.32-8.42,.7-1.18,1.38-2.37,2.04-3.57,.28-.51,.55-1.03,.82-1.55,.12-.23,.23-.46,.35-.69,1.19-2.38,1.76-4.77,1.15-7.43-.51-2.23-2.36-4.39-3.87-6.02-1.12-1.21-2.5-2.23-3.83-3.18-1.65-1.18-3.49-2.04-5.28-2.98-4.17-2.18-9.97-1.2-12.31,3.23-2.19,4.15-1.22,9.98,3.23,12.31,1.89,.99,3.83,1.91,5.56,3.18l-1.82-1.41c.98,.76,1.84,1.61,2.59,2.59l-1.41-1.82c.24,.33,.47,.67,.7,1.02v-9.08c-2.32,4.78-5.21,9.29-8.12,13.73-4.31,6.58-8.87,12.99-13.54,19.32-3.16,4.29-6.37,8.53-9.62,12.74l1.41-1.82c-6.21,8.04-12.58,15.97-19.06,23.8-7.03,8.48-14.2,16.83-21.52,25.06-7.5,8.42-15.15,16.71-22.98,24.82-7.62,7.89-15.42,15.61-23.46,23.08-7.41,6.88-15.02,13.55-22.94,19.83-.9,.71-1.81,1.42-2.71,2.12l1.82-1.41c-7.89,6.09-16.12,11.86-24.97,16.47-2.1,1.1-4.24,2.12-6.42,3.04l2.15-.91c-4.05,1.71-8.28,3.1-12.65,3.7l2.39-.32c-2.31,.31-4.65,.38-6.97,.07l2.39,.32c-1.67-.23-3.3-.65-4.85-1.3l2.15,.91c-1.22-.52-2.37-1.18-3.43-1.96-1.77-1.3-4.91-1.46-6.94-.91s-4.35,2.19-5.38,4.14c-1.1,2.09-1.66,4.62-.91,6.94,.76,2.36,2.15,3.92,4.14,5.38h0Z"/><path class="j" d="M1899.79,446.62c.8-.73,1.63-1.42,2.49-2.09l-1.82,1.41c2.76-2.12,5.76-3.88,8.96-5.24l-2.15,.91c3.72-1.56,7.63-2.57,11.62-3.11l-2.39,.32c5.51-.72,11.08-.56,16.58,.17l-2.39-.32c9.93,1.34,19.54,4.44,28.75,8.32l-2.15-.91c14.2,6.02,27.56,13.94,40.16,22.79,3.47,2.44,6.89,4.96,10.24,7.55l-1.82-1.41c10.71,8.28,21.08,17.26,30.05,27.43,2.73,3.1,5.3,6.35,7.82,9.61l-1.41-1.82c12.08,15.68,22.68,32.56,31.53,50.27,2.63,5.26,5.09,10.6,7.38,16.02l-.91-2.15c5.29,12.58,9.64,25.59,12.4,38.96,.76,3.66,1.38,7.34,1.88,11.04l-.32-2.39c1.38,10.43,1.65,21.02,.25,31.46l.32-2.39c-.71,5.14-1.82,10.21-3.38,15.16-1.42,4.49,1.67,10.02,6.29,11.07,4.91,1.12,9.55-1.48,11.07-6.29,4.2-13.26,5.33-27.53,4.26-41.36-1.14-14.8-4.39-29.38-9.11-43.44-4.87-14.5-11.14-28.57-18.36-42.05-6.64-12.42-14.13-24.39-22.39-35.79-6.37-8.81-13.06-17.43-20.73-25.14-7.09-7.13-14.72-13.73-22.64-19.92-9.62-7.52-19.59-14.58-30.1-20.8-10.51-6.23-21.56-11.66-33.07-15.79-10.33-3.71-21.34-6.25-32.36-6.34s-21.39,2.34-30.29,8.13c-2.47,1.61-4.82,3.44-7,5.42-3.5,3.17-3.46,9.55,0,12.73,3.74,3.43,8.99,3.38,12.73,0h0Z"/><path class="j" d="M2229.96,529.55c-4.63-4.78-9.83-9.21-15.58-12.59-4.59-2.71-9.76-4.93-15.05-5.77-5.54-.88-10.94-.89-16.41,.56-4.53,1.2-8.97,3.32-12.76,6.08-8.53,6.2-15.07,14.62-19.82,24-5.03,9.96-8.48,20.74-10.22,31.76-1.88,11.95-2.13,23.81-.14,35.76,2.09,12.55,6.76,25.4,15.29,35.02,6.6,7.45,16.66,12.3,26.73,11.03,5.55-.7,10.75-2.44,15.49-5.48,4.73-3.03,8.97-6.87,12.52-11.23,9.79-12.01,16.1-26.61,19.77-41.6,3.9-15.92,4.83-32.4,5.73-48.71,.21-3.9,.43-7.8,.69-11.7l-16.77,4.54c1.1,1.86,2.05,3.8,2.89,5.79l-.91-2.15c4.23,10.06,6.07,21.06,7.67,31.79,.51,3.4,.98,6.81,1.44,10.21l-.32-2.39c1.6,11.89,2.99,23.86,5.5,35.6,1.06,4.95,2.33,9.86,4.05,14.62,1.76,4.86,3.84,9.74,6.76,14.03,3.34,4.91,7.44,9.24,12.64,12.19,4.09,2.33,10.03,1.1,12.31-3.23,2.26-4.27,1.14-9.83-3.23-12.31-1.05-.6-2.05-1.26-3-2l1.82,1.41c-1.94-1.52-3.65-3.29-5.16-5.23l1.41,1.82c-2.4-3.14-4.26-6.64-5.8-10.27l.91,2.15c-4.44-10.61-6.41-22.16-8.1-33.48-.53-3.53-1.01-7.06-1.49-10.6l.32,2.39c-1.18-8.8-2.27-17.62-3.77-26.38-1.24-7.24-2.73-14.5-5.19-21.44-1.41-3.99-3.07-7.96-5.22-11.62-1.95-3.3-6.39-5.36-10.16-4.14-3.96,1.28-6.33,4.56-6.61,8.68-.93,14.02-1.29,28.09-3.14,42.04l.32-2.39c-1.56,11.51-4.23,22.84-8.75,33.57l.91-2.15c-2.84,6.66-6.28,13.07-10.7,18.82l1.41-1.82c-2.65,3.4-5.63,6.55-9.05,9.19l1.82-1.41c-2.28,1.74-4.74,3.24-7.39,4.37l2.15-.91c-1.99,.82-4.05,1.42-6.17,1.72l2.39-.32c-1.89,.25-3.78,.27-5.67,.03l2.39,.32c-1.82-.25-3.59-.73-5.28-1.44l2.15,.91c-1.93-.82-3.73-1.9-5.39-3.18l1.82,1.41c-2.12-1.67-3.98-3.62-5.63-5.75l1.41,1.82c-2.58-3.38-4.59-7.14-6.25-11.05l.91,2.15c-2.72-6.53-4.53-13.47-5.49-20.47l.32,2.39c-1.16-8.63-1-17.41,.14-26.03l-.32,2.39c1.23-9.13,3.57-18.11,7.13-26.61l-.91,2.15c2.52-5.96,5.64-11.69,9.59-16.83l-1.41,1.82c2.52-3.25,5.36-6.24,8.61-8.78l-1.82,1.41c2.36-1.82,4.91-3.37,7.65-4.54l-2.15,.91c2.33-.98,4.77-1.66,7.27-2.01l-2.39,.32c2.51-.33,5.03-.32,7.54,.01l-2.39-.32c2.92,.41,5.74,1.23,8.46,2.36l-2.15-.91c3.84,1.63,7.38,3.84,10.69,6.37l-1.82-1.41c2.92,2.26,5.64,4.76,8.21,7.42,3.28,3.39,9.48,3.54,12.73,0s3.5-9.11,0-12.73h0Z"/><path class="j" d="M2286.01,532.25c.19,.05,.38,.12,.57,.19l-2.15-.91c.43,.19,.82,.44,1.19,.72l-1.82-1.41c.68,.54,1.26,1.18,1.79,1.87l-1.41-1.82c1.58,2.07,2.72,4.46,3.73,6.85l-.91-2.15c3.17,7.56,5.17,15.62,6.99,23.59,2.33,10.23,4.18,20.57,5.82,30.94,.96,6.06,1.84,12.13,2.66,18.21l-.32-2.39c1.92,14.31,3.59,28.67,4.62,43.07,.17,2.39,.32,4.77,.41,7.16,.16,4.7,4.02,9.22,9,9s8.89-3.95,9-9c.09-4.04-.21-8.09-.45-12.12-.37-6.03-.8-12.06-1.17-18.09-.95-15.41-1.6-30.85-1.24-46.29,.21-8.94,.76-17.89,1.95-26.76l-.32,2.39c1.25-9.25,3.15-18.55,6.78-27.19l-.91,2.15c1.59-3.74,3.52-7.34,6-10.58l-1.41,1.82c1.61-2.08,3.44-3.98,5.53-5.6l-1.82,1.41c1.71-1.31,3.57-2.4,5.56-3.24l-2.15,.91c1.76-.73,3.62-1.31,5.51-1.57l-2.39,.32c.96-.12,1.93-.13,2.9,0l-2.39-.32c.96,.14,1.88,.4,2.78,.77l-2.15-.91c1.17,.49,2.25,1.16,3.26,1.93l-1.82-1.41c1.62,1.26,3.03,2.78,4.29,4.4l-1.41-1.82c3.15,4.08,5.46,8.76,7.46,13.48l-.91-2.15c4.24,10.07,7.11,20.71,9.59,31.33,2.86,12.26,5.09,24.66,7.05,37.09,1.08,6.87,2.07,13.75,3,20.65l-.32-2.39c1.88,13.96,3.42,27.96,5.12,41.94,.38,3.12,.78,6.24,1.22,9.35,.29,1.99,2.42,4.47,4.14,5.38,1.82,.96,3.69,1.34,5.74,1.07,4.54-.61,7.58-4.32,7.8-8.84,.52-10.34-.05-20.78-.14-31.12-.15-16.12-.06-32.26,.81-48.36,.51-9.44,1.28-18.87,2.53-28.24l-.32,2.39c1.27-9.45,2.98-18.92,5.93-28,.72-2.22,1.52-4.41,2.43-6.56l-.91,2.15c1.55-3.65,3.4-7.19,5.81-10.34l-1.41,1.82c1.34-1.73,2.84-3.33,4.57-4.68l-1.82,1.41c1.31-1.01,2.72-1.86,4.25-2.51l-2.15,.91c1.25-.52,2.56-.91,3.89-1.1l-2.39,.32c.67-.09,1.35-.09,2.02,0l-2.39-.32c.75,.11,1.48,.32,2.19,.61l-2.15-.91c1,.43,1.93,1.01,2.79,1.67l-1.82-1.41c1.57,1.23,2.92,2.72,4.14,4.29l-1.41-1.82c3.68,4.78,6.33,10.32,8.66,15.85l-.91-2.15c3.92,9.33,6.91,19.05,9.51,28.83,2.94,11.06,5.35,22.27,7.36,33.54,1.12,6.29,2.11,12.6,2.96,18.92l-.32-2.39c1.73,12.92,3.15,26.07,2.79,39.13-.07,2.53-.22,5.06-.55,7.57l.32-2.39c-.27,2.01-.63,4.05-1.41,5.94l.91-2.15c-.09,.22-.19,.43-.3,.65-1.09,2.17-1.57,4.54-.91,6.94,.57,2.09,2.19,4.35,4.14,5.38,4.09,2.16,10.05,1.26,12.31-3.23,2.07-4.11,2.71-8.44,3.15-12.98s.45-9.29,.31-13.92c-.41-13.52-2.07-27.02-4.09-40.38-2.16-14.27-4.95-28.46-8.54-42.43-3.32-12.94-7.3-25.79-12.95-37.92-4.13-8.87-9.82-18.49-19.44-22.06-5.2-1.93-10.77-.45-15.57,1.84-5.06,2.41-8.98,6.74-12.15,11.25-3.35,4.77-5.66,10.32-7.58,15.79-2.06,5.86-3.52,11.93-4.69,18.03-2.84,14.81-4.17,29.92-4.91,44.97-.7,14.13-.82,28.28-.72,42.42,.07,10.17,.38,20.35,.28,30.52-.01,1.42-.04,2.84-.11,4.25l17.68-2.39c-.08-.59-.16-1.17-.24-1.76l.32,2.39c-1.22-9.11-2.18-18.26-3.27-27.38-1.65-13.76-3.44-27.5-5.57-41.2-2.13-13.73-4.59-27.42-7.84-40.93-2.9-12.06-6.41-24.1-11.8-35.31-4.08-8.49-10.27-17.57-19.81-20.31-5.78-1.66-11.51-.15-16.86,2.16-4.72,2.03-8.98,5.44-12.23,9.4-7.88,9.59-11.95,21.56-14.3,33.62-2.71,13.89-3.64,28.11-3.81,42.24-.16,13.23,.38,26.46,1.16,39.67,.57,9.53,1.41,19.05,1.73,28.59,.05,1.37,.07,2.75,.04,4.12h18c-.25-7.29-.96-14.57-1.69-21.82-1.16-11.59-2.59-23.15-4.19-34.69-1.62-11.68-3.47-23.34-5.76-34.91-1.91-9.69-4.04-19.42-7.23-28.78-1.35-3.96-2.87-7.95-4.92-11.6-1.77-3.15-4.19-6.34-7.41-8.14-.99-.55-2.08-1.03-3.17-1.33-4.54-1.23-9.99,1.53-11.07,6.29-1.08,4.74,1.42,9.75,6.29,11.07h0Z"/><path class="j" d="M2513.46,523.08c.12,.15,.24,.29,.36,.45l-1.41-1.82c.91,1.21,1.61,2.55,2.21,3.94l-.91-2.15c2.29,5.45,3.24,11.44,4.02,17.26l-.32-2.39c1.18,8.88,1.73,17.83,2.43,26.76,.83,10.57,2.17,21.09,3.33,31.63,1.75,15.95,3.43,31.9,5.16,47.85,.33,3.04,.66,6.08,.97,9.13,.14,1.34,.5,2.87,.39,4.22l.32-2.39h0l.91-2.14h0l12.31-3.23h0l3.23,3.23h0l.91,2.14c-.18-.55-.19-1.2-.27-1.76l.32,2.39c-.03-.21-.06-.41-.08-.62-.33-2.48-.79-4.52-2.64-6.36-1.56-1.56-4.12-2.74-6.36-2.64s-4.74,.87-6.36,2.64c-1.49,1.62-2.94,4.07-2.64,6.36,.57,4.34,.62,7.28,4.81,10.16,1.77,1.21,4.92,1.56,6.94,.91,2.33-.76,3.97-2.13,5.38-4.14,1.82-2.6,1.14-5.88,.84-8.78-.35-3.41-.72-6.82-1.09-10.23-.76-6.99-1.53-13.98-2.27-20.97-1.6-15.12-3.24-30.23-4.95-45.34-1.23-10.84-1.72-21.74-2.84-32.59-.66-6.36-1.42-12.78-2.9-19.02-1.32-5.55-3.38-10.82-7.06-15.24-1.4-1.68-4.27-2.64-6.36-2.64-2.21,0-4.84,.98-6.36,2.64s-2.74,3.97-2.64,6.36,1.03,4.44,2.64,6.36h0Z"/><path class="j" d="M2612.98,397.75c-2.59,6.39-3.72,13.23-4.43,20.06-.72,6.95-.69,13.96-.32,20.92,.85,15.96,3.41,31.81,5.96,47.57,1.3,8.06,2.64,16.11,3.74,24.2l-.32-2.39c2.55,19.03,2.64,38.28,2.73,57.45,.1,21.3-.02,42.66,2.09,63.88,1.2,12.03,3,24.05,6.13,35.75l.91-6.94c-.14,.32-.29,.63-.49,.92l1.41-1.82c-.06,.08-.13,.14-.21,.2l1.82-1.41-.1,.04,4.54-1.23h-.09l2.39,.33-.09-.03,2.15,.91-.08-.06,1.82,1.41-.08-.09,1.41,1.82c-.13-.18-.22-.38-.31-.59l.91,2.15c-1.13-2.85-1.97-5.49-4.09-7.82-3.18-3.48-9.54-3.47-12.73,0-3.42,3.73-3.4,9.01,0,12.73,.11,.11,.21,.23,.3,.35l-1.41-1.82c.24,.36,.43,.73,.61,1.13l-.91-2.15c.63,1.54,1.01,3.26,1.86,4.69,1.78,3,4.78,5.05,8.36,5.03,4.37-.03,8.49-3.49,9.47-7.76,.69-3.04-.32-5.88-1.02-8.8-1.62-6.7-2.81-13.49-3.74-20.32l.32,2.39c-3.33-25-3.02-50.3-3.15-75.47-.07-12.29-.2-24.58-.95-36.85-.64-10.49-2.06-20.89-3.68-31.27-1.85-11.85-3.91-23.67-5.51-35.55l.32,2.39c-2.05-15.35-3.68-31.16-1.64-46.6l-.32,2.39c.7-5.12,1.84-10.18,3.79-14.97,.82-2.02,.14-5.14-.91-6.94s-3.23-3.65-5.38-4.14c-2.3-.52-4.89-.41-6.94,.91s-3.2,3.08-4.14,5.38h0Z"/><path class="j" d="M2513.35,477.32c.18-.23,.38-.46,.59-.66,.02-.01,.37-.32,.13-.13,.11-.08,.22-.16,.34-.23,.04-.03,.43-.21,.1-.08,.08-.03,.16-.06,.24-.08,.09-.03,.44-.05,.08-.04,.12,0,.55,.08,.2-.02,.05,.01,.43,.14,.12,0,.12,.05,.24,.13,.36,.2-.23-.16,.15,.14,.16,.15,.08,.08,.15,.16,.23,.25-.21-.23-.02,0,.01,.03l.04,.07c.07,.14,.05,.1-.04-.13,.07,.07,.19,.52,.17,.61,.04-.14-.02-.3-.02-.11,0,.1,.02,.2,.02,.3,0,.2,0,.4-.02,.6,0,.1-.08,.42,0,0-.02,.1-.03,.2-.06,.3-.04,.19-.1,.37-.15,.56s0,.28,.02-.02c0,.06-.09,.18-.12,.23-.04,.07-.09,.14-.13,.21-.13,.26,.23-.27,.05-.07-.24,.26,.29-.13-.01,.02,.43-.2,.25-.09,.13-.07,.3-.03,.37-.04,.22-.04,.29,.05,.36,.06,.21,.02-.26-.07,.35,.18,.09,.03-.23-.13,.16,.21,.06,.05-.04-.06-.13-.13-.17-.17-.26-.24,.17,.24-.02-.03l-.05-.08c-.07-.14-.06-.11,.03,.11-.05-.04-.05-.19-.07-.25-.12-.28,.06,.37,.02,.07-.05-.36,.05,.08-.03,.08,0,0,.06-.21,.06-.23,.04-.27-.19,.28-.03,.07,.04-.06,.09-.14,.12-.2,.12-.24-.25,.22-.04,.06,.06-.04,.12-.11,.17-.17,.17-.19-.11,.12-.12,.09,0-.01,.18-.12,.2-.13,.31-.2-.22,.03,0,0,.02,0,.22-.05,.22-.06-.07,.2-.41-.04-.1,.02,.39,.08-.35-.11,.04,0,.27,.08-.33-.18-.08-.03s-.27-.25-.05-.04c.15,.14,.21,.06,0-.04,.08,.04,.15,.27,.19,.34-.18-.35,.03,.2,.06,.32,.09,.33,.03-.3,0,.02,0,.09,0,.21,0,.3,.04,.3,.11-.3,0-.03-.03,.07-.06,.18-.07,.25-.05,.27,.04-.15,.05-.12,0,.02-.15,.28-.17,.29,.02,0,.27-.27,.02-.05-.03,.02-.15,.17-.18,.17,.05,0,.31-.19,.03-.04-.07,.04-.15,.08-.22,.12-.15,.1,.04,.04,.12-.05-.04,.04-.19,.07-.25,.09-.08,.03-.17,.04-.26,.07-.4,.11,.21,.01-.04,.01-.17,0-.33,.02-.5,0-.03,0-.22,0-.23-.02,0,0,.39,.09,.04,0-.13-.04-.43-.05-.53-.16l.19,.08c-.06-.02-.11-.05-.17-.08-.08-.05-.16-.09-.24-.14-.1-.05-.29-.25,0,.02-.07-.06-.14-.12-.21-.19s-.12-.14-.19-.21c.27,.29,.07,.09,.01,0-.04-.09-.09-.17-.14-.26,.02,.04,.1,.32,.04,.08-.03-.1-.05-.2-.08-.29-.03-.16-.03-.13,0,.09,0-.07-.01-.14-.02-.21,0-.11,0-.22,0-.33,0-.09,.07-.44,0-.04,.03-.19,.07-.38,.12-.56,.03-.11,.07-.23,.11-.34,.02-.06,.19-.41,.03-.08,.12-.25,.25-.5,.41-.74,.04-.07,.09-.13,.14-.2,.22-.32-.21,.21,.06-.07,.16-.17,.32-.33,.49-.49,.27-.25-.26,.14,.06-.04,.1-.05,.19-.12,.28-.17,.06-.03,.13-.07,.2-.1-.37,.18,.06,0,.15-.02,.32-.11-.32-.01,.02-.01,.11,0,.22,0,.32,0-.36,.01-.09-.02,.04,.02,.1,.02,.19,.06,.29,.09-.06-.02-.27-.17-.09-.03,.07,.05,.17,.11,.25,.15,.27,.14-.18-.23,0,0,.07,.1,.18,.19,.27,.28-.29-.3,.03,.07,.1,.18,.05,.09,.09,.18,.13,.27-.18-.36-.03-.07,0,.02,.07,.2,.11,.4,.15,.6,.08,.35-.01-.34,0,.01,0,.1,.01,.21,.02,.31,0,.21-.01,.41-.03,.62,.04-.46-.05,.18-.09,.31-.03,.1-.07,.19-.1,.29,.01-.05,.16-.3,.03-.08-.05,.08-.09,.18-.14,.26-.06,.1-.33,.39-.05,.09-.07,.07-.13,.14-.2,.21-.08,.09-.32,.21,0,.01-.14,.08-.27,.17-.42,.24-.08,.04-.15,.07-.23,.11-.27,.14,.34-.12,.06-.03-.16,.05-.32,.12-.49,.17-.11,.03-.22,.05-.33,.08-.44,.1,.31,0-.03,0-.11,0-.23,0-.34,0-.4,0,.32,.1,.03,.01-.09-.03-.19-.06-.29-.08-.3-.06,.36,.21,.07,.03-.07-.04-.15-.1-.22-.13-.19-.09,.3,.28,.16,.12-.04-.05-.09-.08-.14-.12-.05-.05-.1-.12-.16-.17-.16-.15,.21,.35,.12,.15-.02-.04-.06-.08-.08-.12-.05-.09-.09-.17-.14-.26-.19-.34,.11,.33,.01,.03-.06-.2-.13-.4-.17-.61-.02-.08-.02-.19-.05-.27,.14,.36,.04,.35,.02,.18,0-.08-.01-.15-.02-.23-.01-.21-.02-.43-.01-.64,0-.12,.01-.24,.02-.36,0-.06,.01-.12,.02-.18,.02-.21,.14-.26-.02,.1,.08-.19,.08-.46,.12-.66,.06-.24,.12-.47,.2-.7,.04-.11,.08-.22,.12-.34,.12-.33-.18,.36,0,0,.11-.21,.21-.43,.34-.63,.05-.08,.1-.15,.15-.23,.23-.34-.22,.24,0,0,.14-.15,.29-.29,.43-.44,.16-.16-.35,.22-.15,.11,.04-.02,.08-.06,.12-.08,.08-.05,.17-.09,.25-.14,.25-.16-.38,.11-.1,.04,.1-.02,.22-.05,.32-.09,.21-.08-.44,.02-.21,.03,.05,0,.1-.01,.14,0,.08,0,.17,.01,.25,0,.23-.02-.42-.09-.2-.03,.05,.01,.1,.02,.15,.03,.1,.02,.27,.13,.37,.12-.01,0-.36-.18-.2-.08,.05,.03,.11,.05,.16,.08,.11,.06,.22,.13,.33,.2,.38,.26-.18-.18,.09,.06,.12,.1,.24,.21,.35,.31,.25,.24,.47,.5,.69,.76,.06,.07,.2,.27-.02-.03,.06,.08,.12,.17,.18,.25,.14,.2,.28,.4,.4,.61,.05,.08,.08,.16,.13,.24,.13,.21-.02-.08-.04-.1,.1,.15,.14,.38,.18,.55,.05,.19,.08,.39,.12,.59-.08-.46,0,.19,0,.31,0,.21,0,.42-.01,.62,0,.1-.02,.21-.03,.31,.04-.43,0-.08,0,.01-.03,.17-.07,.34-.12,.5-.03,.1-.06,.2-.09,.29-.02,.06-.05,.13-.07,.19,.09-.2,.1-.23,.03-.08-.09,.17-.18,.34-.28,.51-.03,.06-.07,.1-.11,.16,.2-.33,.08-.09,0,0-.1,.1-.55,.44-.18,.2-.08,.05-.15,.11-.23,.15-.12,.07-.46,.16-.06,.05-.15,.04-.31,.08-.47,.13,.38-.11,.13-.01,0,0-.11,0-.21,0-.32,0s-.42-.09-.05,0c-.1-.03-.21-.04-.31-.07-.07-.02-.13-.04-.2-.06-.15-.06-.13-.05,.08,.04-.06-.03-.12-.06-.18-.09-.08-.05-.17-.11-.25-.15-.28-.13,.21,.22,0,0-.11-.12-.23-.22-.35-.34-.07-.08-.22-.33-.01,0-.05-.08-.11-.16-.16-.25s-.1-.17-.15-.26-.2-.51-.06-.1c-.13-.36-.22-.72-.3-1.09-.07-.36,.02,.35,0-.02,0-.1-.02-.21-.02-.31,0-.21,0-.42,0-.63,0-.1,.02-.21,.03-.31,.03-.36-.07,.34,0-.01,.04-.2,.08-.4,.14-.59,.03-.1,.24-.61,.05-.2,.1-.21,.2-.4,.32-.59,.05-.09,.26-.31-.02,0,.06-.07,.12-.14,.18-.21,.07-.07,.43-.34,.15-.16,.1-.07,.2-.13,.3-.19,.06-.03,.41-.19,.06-.05,.25-.1,.51-.16,.77-.21-.38,.07,.16,0,.29,0,.12,0,.23,.01,.35,.02-.39-.02-.02,0,.07,.02,.22,.04,.43,.1,.63,.17,.1,.03,.19,.07,.28,.1-.35-.13,.13,.07,.2,.1,.22,.11,.43,.24,.63,.38,.05,.03,.36,.29,.09,.06,.06,.05,.13,.1,.19,.16,.18,.16,.35,.33,.52,.52,.04,.05,.27,.36,.07,.07,.09,.13,.18,.26,.26,.4,.05,.09,.29,.62,.16,.27,.08,.22,.14,.44,.2,.66,.1,.36,0-.32,.01,.06,0,.11,.01,.22,.01,.32s0,.21,0,.31c0,.14,.06,.37,0,0,.03,.16-.1,.41-.14,.56-.03,.11-.06,.39,.02,0-.02,.08-.08,.18-.12,.25-.07,.14-.16,.26-.24,.39-.16,.27,.24-.23,.01-.02-.09,.08-.16,.18-.25,.26-.06,.06-.14,.12-.2,.18-.22,.23,.29-.18,.02,0-.13,.08-.25,.17-.39,.25-.14,.08-.33,.22-.5,.25,.38-.07,.13-.05,.01-.01-.1,.03-.21,.07-.31,.1-.17,.05-.34,.09-.51,.13-.08,.02-.2,.05-.28,.05,.42,.02,.14-.02,.02,0-.33,.02-.83,.1-1.14-.02,.36,.14,.16,.03,.02,0-.09-.02-.19-.04-.28-.06-.15-.04-.3-.08-.45-.13-.08-.03-.19-.05-.26-.1,.35,.22,.11,.05,.02,0-.19-.11-.37-.23-.56-.33-.28-.16,.23,.23,0,0-.04-.04-.1-.08-.14-.12-.14-.13-.26-.27-.39-.41,.29,.32-.08-.14-.15-.26-.04-.07-.07-.16-.11-.22-.05-.1-.03-.05,.06,.14-.02-.06-.04-.12-.06-.18-.02-.09-.05-.19-.07-.28-.09-.35,.04,0,0,0,0,0-.02-.56-.01-.61,0-.07,.01-.14,.01-.21,.02-.36-.07,.33,0-.03,.05-.26,.11-.51,.18-.76,.03-.11,.07-.22,.11-.32,.02-.06,.18-.41,.02-.07,.08-.18,.16-.35,.26-.52,.11-.21,.23-.41,.37-.6,.07-.1,.13-.19,.2-.28-.22,.3,.04-.04,.1-.1,.14-.16,.29-.31,.44-.45,.08-.08,.17-.15,.26-.22-.29,.24,0,.01,.05-.03,.16-.11,.37-.18,.52-.3,.16-.12-.33,.11-.02,0,.13-.04,.27-.09,.4-.12,.1-.02,.43-.04,.02-.02,.11,0,.21-.02,.32-.02s.21,.01,.32,.01c-.32,0-.18-.03-.07,0,.22,.06,.44,.12,.66,.19,.35,.11-.27-.16,.04,.02,.12,.07,.24,.13,.35,.2,.03,.02,.28,.21,.08,.05s.04,.04,.06,.06c.06,.06,.12,.14,.19,.2,.23,.19-.16-.28-.01-.02,.06,.1,.28,.34,.26,.46,.02-.14-.1-.3-.04-.07,.03,.1,.06,.19,.09,.29,.02,.09,.03,.18,.06,.26,.08,.3,0-.36,0-.04,0,.18,.02,.36,.01,.55,0,.14,.04,.62,0,.16,.02,.2-.09,.47-.14,.65s-.13,.37-.18,.55c-.03,.09-.13,.23,.04-.09-.05,.09-.08,.18-.13,.27-.09,.18-.18,.35-.29,.52-.05,.08-.11,.17-.16,.25-.03,.04-.27,.36-.11,.16s-.05,.05-.07,.07c-.06,.07-.13,.14-.19,.21-.13,.14-.28,.26-.42,.39-.23,.23,.28-.17,0,0-.05,.03-.1,.07-.15,.11-.13,.08-.4,.31-.56,.31,.27,0,.22-.07,.02-.02-.09,.03-.17,.06-.26,.08-.2,.05-.4,.09-.6,.13,.39-.06,.01-.01-.06,0-.11,0-.22,0-.33,0s-.21-.02-.32-.02c.43,.01,0,0-.11-.03-.16-.04-.32-.1-.48-.14-.32-.09,.27,.17,0,0-.08-.05-.17-.09-.26-.14s-.16-.11-.24-.16c-.28-.16,.23,.23,0,0-.14-.13-.28-.26-.41-.4-.07-.07-.25-.33,0,0-.06-.08-.11-.16-.16-.24-.11-.16-.19-.33-.29-.5-.03-.06-.05-.12-.08-.18,.18,.38,.04,.08,0,0-.07-.22-.14-.44-.18-.67-.02-.09-.05-.2-.05-.29,.02,.45,.01,.09,.01,0,0-.17-.01-.33-.01-.5,0-.1,.01-.2,.02-.3,.01-.35-.07,.34,0,0,.04-.2,.08-.4,.14-.6,.03-.1,.07-.2,.1-.29,.1-.34-.15,.29,0-.03,.09-.19,.19-.38,.3-.56,.06-.09,.12-.18,.18-.27-.16,.26-.09,.11-.03,.05,.18-.2,.35-.39,.55-.56-.01,0,.4-.31,.19-.16,.12-.09,.25-.17,.37-.25,.2-.12,.41-.23,.62-.33-.3,.13,.09-.02,.13-.03,.12-.04,.24-.07,.36-.1,.09-.02,.46-.03,.08-.02,.15,0,.31-.02,.46-.01,.02,0,.39,.03,.13,0s.1,.02,.12,.03c.11,.02,.21,.06,.31,.09,.34,.09-.27-.16,.03,.01,.09,.05,.19,.1,.28,.15,.08,.05,.33,.26,.04,0,.16,.14,.3,.29,.45,.44-.26-.28-.03-.04,.02,.04,.06,.09,.1,.19,.16,.28,.18,.31-.08-.3,.02,.05,.03,.11,.07,.21,.1,.32,.02,.07,.03,.15,.05,.23,.09,.37,0-.31,0,.07,0,.12,.01,.25,0,.37,0,.07-.07,.6,0,.24-.04,.25-.1,.5-.18,.74-.04,.12-.08,.23-.12,.35,.1-.26-.1,.21-.1,.21-.11,.22-.23,.43-.37,.64-.06,.09-.13,.18-.19,.28-.18,.28,.17-.19-.03,.04-.27,.32-.57,.59-.87,.88-.24,.24,.27-.18,0,0-.05,.03-.1,.08-.16,.11-.18,.12-.37,.24-.56,.34-.08,.04-.16,.08-.24,.12-.28,.15,.33-.11,.03-.01-.13,.04-.27,.1-.4,.14-.16,.04-.32,.07-.47,.11-.29,.07,.38-.02,.09-.01-.1,0-.2,.01-.3,.01s-.27-.04-.36-.02c.29-.08,.34,.08,.13,0-.06-.02-.13-.04-.19-.05-.01,0-.18-.06-.18-.06,.01-.03,.4,.19,.13,.04-.03-.02-.07-.05-.11-.06-.18-.06,.27,.29,.06,.05-.03-.04-.09-.1-.13-.13-.18-.14,.16,.32,.09,.11-.01-.04-.06-.13-.09-.16-.15-.2,.09,.36,.05,.12,0-.04-.03-.09-.04-.13-.08-.25,.1-.06,0,.12,.05-.08,0-.45,0-.55,0-.31-.09,.36,0,.05,.02-.08,.03-.16,.05-.23,.04-.18,.1-.37,.17-.54,.02-.06,.18-.4,.02-.07,.05-.11,.1-.22,.16-.34,.12-.24,.26-.48,.4-.71,.32-.52,.68-1.03,1.08-1.49,.19-.21,.38-.41,.59-.61,.11-.11,.23-.21,.35-.31,.14-.11,.15-.13,.04-.04,.07-.05,.15-.11,.23-.16,.21-.14,.43-.26,.66-.37-.32,.17,.17-.05,.27-.08,.08-.02,.22-.08,.3-.07-.37-.06-.16,.01-.02,.02,.04,0,.24-.02,.27,0-.25-.04-.3-.04-.14-.02,.05,.01,.11,.03,.16,.04,.39,.08-.26-.13,.09,.05,.31,.15-.07-.03-.04-.05,.02,0,.16,.15,.17,.17,.21,.17-.15-.29-.03-.04,.03,.07,.08,.16,.13,.22,.15,.22-.05-.12-.05-.12,.06,.05,.08,.28,.11,.35,.1,.35-.06,0,0-.02,0,0,.02,.29,.02,.31,0,.11,0,.21,0,.32,0,.09-.08,.43,0,.05-.04,.2-.08,.4-.14,.59-.04,.12-.08,.25-.12,.37-.06,.16-.06,.17,0,.02-.04,.09-.08,.17-.12,.26-.5,1-1.09,1.74-1.93,2.49-.08,.07-.17,.15-.26,.22,.29-.25,.05-.03-.03,.01-.15,.1-.31,.19-.47,.28-.35,.2,.29-.07-.07,.03-.07,.02-.14,.04-.2,.06-.34,.1,.29,.02,.08,0-.04,0-.13,0-.18,0-.24,.04,.41,.07,.18,.02-.04,0-.09-.02-.13-.04-.16-.06,.36,.22,.19,.08-.03-.03-.1-.06-.14-.08-.2-.08,.27,.28,.14,.11-.02-.03-.08-.09-.11-.11-.15-.12,.21,.37,.07,.09-.03-.05-.09-.23-.13-.25,.19,.12,.12,.37,.07,.14-.01-.06-.04-.12-.05-.18s-.02-.13-.04-.18c-.08-.25,.01,.4,.02,.14,0-.13-.02-.27-.02-.41,0-.07,0-.14,0-.21,0-.21,.11-.17-.02,.12,.06-.12,.05-.3,.09-.43,.03-.12,.07-.24,.11-.36,.1-.31,.01,.09-.04,.07,0,0,.12-.26,.14-.28,.06-.12,.13-.23,.2-.34,.02-.04,.1-.18,.14-.2-.12,.04-.22,.25-.03,.05,.12-.12,.23-.24,.35-.35,.17-.16,.05-.16-.04,.02,.02-.04,.18-.12,.22-.15,.11-.07,.34-.25,.47-.26-.29,0-.19,.07-.01,0,.09-.03,.18-.06,.28-.09,.16-.05,.33-.08,.49-.11-.31,.06,.12,0,.16-.01,.17,0,.34,0,.51,0,.37,0-.28-.1,.06,.01,.1,.03,.21,.06,.31,.09-.33-.09-.14-.07-.03,0,.07,.04,.14,.09,.21,.13-.33-.2-.08-.08-.01,.02,.19,.27-.13-.31,0,0,.04,.08,.1,.18,.15,.26-.2-.34,0,0,.03,.13,.02,.07,.03,.14,.05,.21,.09,.35,0-.32,0,.05,0,.25,0,.49-.01,.74-.03,.42,.08-.29-.02,.14-.03,.14-.06,.28-.09,.42-.02,.09-.05,.18-.08,.27-.02,.08-.25,.56-.08,.24-.11,.21-.22,.4-.35,.6,.24-.33-.18,.13-.24,.21-.11,.15,.29-.18,.02-.01-.09,.05-.17,.11-.27,.16s-.19,.1-.28,.14c.36-.17,.04-.02-.04,0-.2,.07-.4,.12-.6,.16-.1,.02-.19,.04-.29,.05-.39,.08,.33-.02-.08,.01-.52,.05-1.04,.07-1.57,.08l1.3,.74c-.04-.08-.08-.16-.13-.23-.13-.22,.09,.28,.01,.03-.06-.2-.12-.4-.17-.61-.01-.04-.01-.09-.02-.14-.05-.17,.04,.18,.02,.17-.04-.04-.02-.23-.02-.29-.01-.23-.01-.46,0-.69,0-.1,.02-.2,.02-.3,.02-.29-.05,.28,0,0,.04-.24,.09-.48,.15-.71,.05-.2,.11-.41,.18-.61,.03-.1,.07-.2,.11-.3,.02-.07,.05-.13,.08-.2-.03,.09-.11,.24-.03,.07,.19-.41,.39-.8,.64-1.18,.06-.08,.12-.16,.17-.25,.15-.23-.17,.2,0,0,.14-.16,.27-.31,.41-.46,.08-.08,.16-.15,.23-.22,.23-.22-.03-.03-.03,.01,0-.06,.41-.27,.46-.3,.04-.02,.07-.04,.11-.06,.22-.13-.14,.08-.14,.05,0-.01,.2-.07,.22-.08,.07-.02,.15-.03,.23-.05,.21-.06-.36,0-.06,.02,.07,0,.17,.02,.23,0,.17-.03-.33-.1-.17-.02,.03,.02,.08,.01,.12,.02,.02,0,.22,.08,.23,.07-.01,.01-.29-.15-.17-.07,.05,.03,.1,.05,.15,.08,.08,.04,.15,.11,.23,.14,.13,.05-.1-.08-.11-.09,.05,.05,.1,.08,.15,.13,.08,.07,.15,.14,.22,.22,.05,.05,.3,.36,.16,.18-.16-.23,.2,.32,.17,.32-.05,.01-.12-.38-.04-.07,.02,.09,.04,.18,.07,.26,.07,.28,0-.17,0-.08,0,.08,.01,.16,.01,.24,0,.1,0,.19,0,.29,0,.07-.03,.41,0,.14s-.01,.04-.02,.1c-.02,.09-.04,.18-.06,.26-.05,.21-.12,.41-.19,.62-.02,.05-.15,.34-.05,.13s-.04,.08-.06,.13c-.1,.2-.21,.4-.32,.6-.1,.17-.21,.33-.32,.49-.06,.08-.12,.16-.17,.24-.09,.14,.09-.11,.09-.11-.05,.06-.1,.13-.15,.19-.25,.3-.53,.57-.82,.83,0,0-.12,.11-.14,.11-.02,0,.27-.19,.13-.1-.07,.05-.14,.1-.21,.15-.15,.1-.31,.19-.46,.27-.02,0-.14,.07-.14,.07-.02-.02,.32-.11,.18-.08-.07,.01-.14,.05-.21,.07s-.14,.03-.21,.05c-.29,.08,.29,0,.08,0-.07,0-.14,0-.21,0-.3,0,.12,.03,.09,.02-.05-.03-.14-.04-.2-.05-.27-.06,.22,.15,.07,.03-.01-.01-.18-.12-.18-.11,.03-.02,.28,.27,.13,.09-.02-.03-.06-.05-.09-.08-.04-.04-.25-.23-.07-.06,.17,.16-.04-.07-.09-.14s-.08-.15-.12-.22c-.12-.19,.1,.35,.02,.04-.02-.07-.04-.14-.06-.21-.01-.03-.01-.07-.02-.11-.06-.2,.04,.15,.02,.18,.04-.07,0-.35,0-.43,0-.31-.02,.1-.01,.07,.03-.08,.04-.17,.06-.25,.01-.04,.16-.42,.15-.43,.04,.04-.19,.37,0,.04,.04-.08,.09-.16,.13-.24,.08-.14,.18-.27,.27-.41,.14-.22-.2,.24-.03,.04,.07-.08,.14-.17,.22-.25,.25-.27,.52-.51,.8-.75,.2-.17-.25,.18-.04,.03,.07-.05,.14-.1,.2-.14,.16-.11,.32-.21,.49-.3,.14-.08,.28-.15,.43-.22,.28-.14-.03,.06-.07,.03,.01,.01,.22-.08,.25-.09,.15-.05,.3-.09,.45-.13,.07-.02,.14-.02,.2-.04,.21-.05-.39,.01-.1,.02,.06,0,.37,.04,.4,0-.06,.05-.42-.1-.17-.02,.05,.02,.14,.05,.19,.05,.09,0-.22-.08-.23-.1,0,0,.08,.03,.07,.04,0-.02,.14,.1,.16,.1-.05,0-.33-.27-.13-.09s-.08-.13-.07-.1c.02,.05,.07,.11,.09,.16,.15,.22-.07-.28-.04-.09,.01,.07,.04,.14,.06,.2,.08,.29,0-.09,0-.06,0,.18,.02,.35,.01,.53,0,.12-.02,.23-.03,.35-.02,.25,.06-.27-.02,.07-.04,.19-.13,.39-.16,.58-.02,.15,.06-.12,.06-.14-.03,.06-.05,.11-.08,.17-.05,.09-.1,.19-.16,.28-.05,.08-.11,.15-.15,.22-.04,.07,.21-.23,.01-.03-.06,.06-.12,.13-.18,.19-.04,.04-.34,.3-.14,.14,.19-.16-.04,.02-.09,.06-.07,.05-.14,.09-.22,.13s-.15,.08-.22,.12c-.04,.02-.08,.04-.11,.05-.25,.13,.25-.08,.09-.04s-.32,.11-.48,.15c-.08,.02-.16,.04-.24,.05-.04,0-.08,.01-.12,.02-.25,.06,.3,0,.12-.02-.16,0-.32,.02-.48,.02-.08,0-.16,0-.23,0-.04,0-.08,0-.11,0-.21,0,.15,0,.17,.03-.08-.06-.36-.07-.46-.1-.07-.02-.13-.05-.2-.07-.03,0,.32,.17,.08,.03-.06-.04-.13-.08-.2-.11-.22-.11,.13,.13,.1,.08s-.09-.09-.14-.13c-.24-.21,.1,.03,.06,.09,0,0-.09-.14-.1-.15-.08-.19,.1,.38,.04,.11,0-.05-.02-.14-.05-.18,0,0,0,.39,.02,.11,0-.04,.03-.18,0-.21,.06,.12-.09,.39,0,.07,.02-.07,.06-.16,.07-.23,.03-.15-.07,.16-.07,.16,.02-.06,.05-.11,.08-.17,.36-.73,.2-1.62-.54-2.05-.66-.39-1.69-.19-2.05,.54-.53,1.07-.73,2.29-.12,3.38,.49,.87,1.42,1.45,2.37,1.68,2.19,.52,4.57-.33,5.89-2.15,1.25-1.73,1.55-4.97-.48-6.26-1.64-1.04-3.85-.19-5.27,.84-1.59,1.16-3.15,3-3.01,5.1,.16,2.37,2.36,4.32,4.75,3.51,2.18-.74,3.74-2.78,4.57-4.84,.42-1.04,.59-2.16,.4-3.28-.2-1.2-1.06-2.24-2.06-2.89s-2.22-.79-3.3-.39c-1.16,.44-2.03,1.26-2.76,2.24-1.41,1.89-2.12,4.48-1.69,6.81,.1,.55,.32,1.09,.59,1.57,.26,.45,.77,.75,1.3,.74,1.36-.01,2.73-.12,3.99-.67s2.09-1.61,2.57-2.86c.47-1.23,.63-2.78,.17-4.04-.5-1.37-1.62-2.29-3.07-2.48-2.27-.31-4.67,.8-5.76,2.85-.78,1.46-1.06,3.54-.05,4.97,.57,.81,1.42,1.31,2.43,1.31,1.11,0,2.08-.61,2.91-1.29,2.08-1.72,3.93-4.69,3.28-7.49-.28-1.21-1.13-2.16-2.28-2.61s-2.49-.13-3.56,.44c-1.49,.8-2.64,2.18-3.56,3.56-.72,1.09-1.28,2.3-1.43,3.61-.24,2.14,1.34,3.72,3.4,3.86s4.01-1.08,5.23-2.56c1.79-2.19,2.69-5.44,.81-7.86-.85-1.1-2.08-1.71-3.45-1.84-1.53-.14-3.02,.53-4.19,1.45-1.98,1.56-2.82,4.04-2.37,6.49,.4,2.19,2.12,4.22,4.37,4.64,2.53,.48,4.81-.61,6.28-2.65,1.19-1.64,1.81-4.02,1.07-5.97-.9-2.38-3.75-3.78-6.18-2.92s-4.11,3.17-4.6,5.59c-.26,1.27-.21,2.55,.39,3.72,.49,.96,1.35,1.79,2.3,2.29,1.98,1.04,4.36,1,6.37,.05s3.37-3.1,3.16-5.37c-.25-2.77-2.55-5.07-5.2-5.73-1.35-.34-2.8-.23-4.03,.44-1.12,.61-1.84,1.63-2.29,2.8-.83,2.18-.43,4.87,1.02,6.69,1.62,2.02,4.74,2.32,6.66,.6,1.72-1.54,2.12-4.25,1.64-6.4-.26-1.15-.9-2.09-1.63-2.99-.54-.67-1.17-1.29-1.91-1.74-1.25-.77-2.85-.89-4.12-.1-2.19,1.37-3.13,4.51-2.85,6.96,.16,1.41,.68,2.79,1.92,3.59,1.4,.91,3.11,.56,4.54-.08,2.3-1.03,3.11-3.81,2.48-6.13-.32-1.18-1.04-2.28-2.11-2.9-1.25-.72-2.74-.67-4-.02-2.24,1.15-3.79,4.32-3.06,6.78s3.33,3.55,5.67,3.04c1.08-.24,2.1-.92,2.64-1.9,.66-1.19,.56-2.69-.04-3.89-1.21-2.41-4.5-1.99-5.69,.2-.63,1.16-.5,2.52,.3,3.56s2.17,1.67,3.41,.93c.96-.57,1.48-1.74,1.69-2.79,.23-1.15,.23-2.36-.23-3.46-.6-1.42-2.08-2.47-3.62-2.52s-2.93,.94-3.84,2.1c-.5,.64-.62,1.5,0,2.12,.52,.52,1.62,.64,2.12,0h0Z"/><path class="j" d="M2521.33,474.54c.22-4.24-4.68-5.11-7.9-4.55-1.68,.29-3.09,1.05-4.14,2.41-1.31,1.68-1.88,3.76-2.09,5.85-.36,3.69,.57,8.16,3.74,10.44,2.35,1.69,5.42,1.23,7.82-.06,4.94-2.65,9.24-9.49,6.57-15.04-1.22-2.52-4.14-4.41-6.88-4.81-2.33-.34-4.4,.55-5.78,2.44-1.24,1.7-1.7,3.92-1.78,5.98-.09,2.25,.32,4.53,1.26,6.57,.83,1.82,2.32,3.48,4.31,4,2.58,.67,5.06-.64,7.01-2.22,2.84-2.31,4.04-6.49,2.68-9.93-1.46-3.68-5.58-5.7-9.29-4.06-3.29,1.46-5.97,5.08-6.45,8.64-.25,1.88,.23,3.8,1.61,5.16,1.03,1.01,2.45,1.62,3.91,1.51,2.65-.21,5.03-2.2,6.2-4.53,1.24-2.46,1.02-5.5-1.86-6.6-1.45-.55-3.48-.56-4.93-.02-1.89,.71-3.42,2.17-4.58,3.79-1.1,1.53-1.95,3.62-1.37,5.5,.68,2.24,2.96,3.35,5.13,2.46,1.81-.74,3.4-2.34,4.01-4.21,.31-.97-.52-1.86-1.45-1.9-1.32-.06-2.64,.19-3.82,.77-.73,.36-.93,1.39-.54,2.05,.43,.74,1.32,.9,2.05,.54s1.54-.39,2.31-.36l-1.45-1.9c-.03,.08-.11,.2,.02,0-.04,.06-.06,.13-.09,.19-.08,.15-.17,.3-.26,.45-.19,.28-.34,.45-.66,.77-.49,.48-.95,.8-1.58,.94-.18,.04,0,0,.03,0-.08,.01-.2,.01-.29,0,.31,.04-.24-.1-.12-.04,.14,.06-.08-.06-.08-.06,.06,.05,.14,.14-.07-.07-.14-.14-.1-.08-.22-.33,.11,.21-.03-.07-.05-.16s-.05-.18-.06-.27c0,.03,.02,.23,.01,.05,0-.17,0-.33,0-.5-.02,.26,.05-.25,.07-.34,.34-1.32,1.31-2.57,2.45-3.56,.29-.25,.36-.31,.73-.54,.15-.09,.3-.18,.45-.27,.08-.04,.53-.23,.27-.14,.12-.04,.24-.08,.36-.12,.08-.02,.16-.04,.23-.05-.04,0-.22,.03-.02,0,.39-.05,.8-.07,1.19-.07,.16,0,.33,.01,.49,.02,.36,.01-.07-.03,.17,.01,.26,.05,.5,.13,.75,.2,.23,.06-.21-.15,.04,.03,.08,.06,.18,.12,.27,.17-.21-.11-.16-.13,0,0,.21,.2,.05,.05,.03,0,.04,.07,.09,.18,.14,.24,.12,.13-.05-.3-.01-.03,0,.07,.04,.17,.06,.23,.12,.27,.01-.3,0,0,0,.2,0,.39-.01,.59,0,.02,.07-.31,0,0-.03,.12-.06,.24-.09,.36-.04,.15-.3,.74-.12,.37-.1,.21-.21,.43-.32,.63s-.26,.41-.4,.61c-.04,.06-.08,.11-.13,.17,0,0,.18-.22,.07-.09-.09,.11-.18,.22-.28,.33-.16,.17-.32,.34-.49,.5-.09,.09-.19,.16-.28,.25-.26,.24,.17-.1-.12,.09-.2,.14-.4,.28-.62,.4-.1,.06-.21,.11-.32,.17-.33,.18,.1-.02-.11,.05-.22,.07-.44,.14-.67,.2-.2,.05-.22,.02,.01,0-.13,0-.26,.02-.39,.02-.11,0-.22-.01-.34-.01-.17,0,.16,.03,.16,.02-.06-.01-.13-.02-.19-.04-.11-.03-.22-.06-.33-.09-.31-.07,.17,.13-.11-.04-.1-.06-.21-.12-.32-.18-.12-.07-.25-.18-.05-.02-.13-.1-.25-.21-.36-.33-.07-.07-.13-.14-.2-.22-.16-.18,.11,.16-.03-.04-.09-.14-.17-.28-.25-.42-.12-.21,0,.09-.09-.21-.05-.15-.09-.31-.13-.46-.02-.07-.03-.14-.04-.2-.04-.24,.01,.35,0-.09-.01-.31-.01-.62,.02-.93,.02-.25-.04,.21,0-.04,.01-.07,.03-.15,.04-.22,.04-.2,.09-.4,.14-.59,.22-.76,.4-1.17,.83-1.9s.7-1.1,1.23-1.67,1.04-1.04,1.55-1.38c.27-.18,.55-.34,.83-.49,.07-.03,.46-.2,.23-.11,.17-.07,.34-.13,.52-.17,.15-.04,.3-.07,.45-.1,.18-.03-.06,0-.08,0,.08,0,.17-.02,.26-.02,.38,0,.47,0,.78,.06,.78,.16,1.17,.31,1.84,.79,.14,.1,.01,0-.01-.01,.07,.06,.15,.12,.22,.19,.12,.11,.24,.23,.35,.36,.26,.29,.23,.25,.48,.68,.29,.5,.45,.92,.59,1.67,.01,.07,.03,.14,.04,.22,.04,.25-.02-.21,0,.04,.02,.17,.03,.34,.03,.52,0,.35,0,.7-.04,1.05,.03-.24-.04,.2-.05,.27-.04,.17-.08,.35-.12,.52s-.11,.34-.16,.51c-.09,.28-.01,.08-.14,.35-.34,.69-.65,1.17-1.09,1.62-.59,.61-.76,.72-1.36,1.12-.43,.29-.89,.53-1.36,.76-.24,.12,.27-.08-.06,.02-.11,.03-.21,.08-.31,.11-.22,.07-.43,.11-.65,.16-.32,.08,.26,0,.02,0-.08,0-.16,.02-.25,.02-.2,.01-.39-.01-.59,0-.33,0,.28,.08,.06,0-.08-.02-.17-.03-.26-.05-.18-.04-.35-.12-.53-.17,.44,.13,0,0-.17-.1-.15-.09-.29-.19-.43-.28,.37,.23-.02-.02-.16-.15s-.27-.28-.4-.42c-.06-.07-.12-.14-.18-.21,.12,.14,.16,.23,.04,.05-.11-.17-.23-.34-.33-.52s-.19-.34-.28-.52c-.04-.09-.09-.18-.13-.27-.08-.17-.13-.34-.02-.04-.15-.39-.29-.78-.41-1.19-.12-.43-.22-.87-.3-1.31-.02-.11-.03-.22-.05-.32-.05-.28,.03,.31,0,.03-.02-.24-.05-.47-.07-.71-.06-.89-.02-1.78,.07-2.67-.05,.46,.03-.16,.06-.32,.04-.22,.09-.44,.14-.65,.1-.39,.23-.77,.37-1.15,.11-.31-.13,.24,0,.01,.04-.08,.08-.17,.12-.26,.09-.18,.18-.36,.29-.53,.09-.14,.2-.28,.28-.42,.02-.04-.23,.26-.02,.03,.07-.07,.13-.15,.2-.23,.12-.13,.25-.24,.38-.36,.17-.16,.06-.03-.07,.05,.08-.05,.16-.11,.24-.17,.14-.09,.31-.16,.45-.25,.2-.13-.34,.1-.05,.02,.1-.03,.19-.07,.28-.09,.09-.02,.17-.04,.26-.06,.06-.02,.4-.07,.11-.03-.26,.04,.32-.01,.45-.01,.11,0,.65,.04,.4,.02-.26-.03,.09,.02,.16,.03,.12,.03,.25,.05,.37,.08,.23,.06,.46,.13,.68,.21,.1,.04,.2,.08,.3,.12-.36-.14,.07,.03,.16,.08,.57,.27,1.13,.59,1.64,.96,.14,.1,0,0-.03-.02,.07,.06,.14,.11,.21,.17,.1,.09,.2,.17,.29,.27,.11,.1,.21,.21,.31,.32,.05,.05,.33,.39,.24,.28-.1-.13,.13,.19,.16,.24,.08,.12,.15,.24,.21,.36s.13,.24,.19,.37c.01,.03,.09,.21,.02,.03-.09-.2,.04,.1,.05,.14,.09,.25,.16,.51,.22,.77,.02,.11,.04,.23,.06,.34,.05,.28,0,0,0-.06,0,.08,.02,.15,.02,.23,.01,.27,.02,.54,.01,.81,0,.14-.01,.27-.03,.41,0,.06-.01,.12-.02,.18-.03,.29,.03-.18,0,.01-.1,.56-.23,1.11-.42,1.65-.05,.14-.1,.27-.15,.41-.03,.08-.06,.16-.09,.23,0-.02,.1-.23,.03-.07-.13,.29-.27,.58-.42,.86-.29,.53-.61,1.04-.96,1.53-.05,.07-.27,.36-.19,.26s-.15,.19-.21,.25c-.21,.25-.42,.49-.65,.72-.41,.43-.85,.83-1.31,1.2-.17,.14,.19-.14,0,0-.05,.04-.1,.08-.15,.11-.12,.08-.23,.17-.35,.25-.25,.17-.51,.33-.77,.48-.22,.13-.45,.24-.68,.35-.12,.06-.4,.16-.12,.06-.14,.05-.28,.11-.42,.16-.24,.08-.49,.15-.74,.21-.12,.03-.25,.04-.37,.07-.17,.04,.13-.01,.14-.01-.09,0-.17,.02-.26,.03-.23,.01-.45,.02-.68,.01-.12,0-.24-.02-.36-.03-.17-.02,.15,.02,.14,.02-.08-.02-.17-.03-.25-.05-.23-.06-.46-.13-.69-.21-.16-.06,.12,.05,.12,.05-.06-.03-.13-.06-.19-.09-.12-.07-.25-.13-.37-.21-.09-.06-.18-.12-.27-.18,.3,.21-.02-.02-.09-.08-.22-.2-.42-.41-.62-.64-.04-.05-.17-.22,0,0-.04-.05-.08-.1-.11-.16-.1-.15-.19-.29-.28-.44-.08-.14-.16-.27-.23-.41-.03-.06-.23-.49-.19-.38-1.19-2.85-1.2-6.66,.36-9.25,.22-.37,.31-.49,.54-.74,.13-.14,.26-.26,.39-.39,.06-.05,.12-.1,.18-.15-.31,.25-.1,.08-.02,.04,.11-.05,.22-.13,.33-.18,.12-.06,.31-.13,.07-.04,.3-.11,.6-.21,.91-.28,.7-.17,.91-.2,1.76-.19,.33,0,.67,.02,.99,.06-.26-.04,.06,.02,.15,.04,.18,.04,.35,.08,.52,.13,.05,.02,.45,.16,.31,.1s.21,.11,.27,.15,.38,.27,.25,.15,.16,.17,.19,.2c.19,.19-.09-.17,.04,.07,.04,.07,.08,.14,.11,.21,0-.02-.09-.24-.04-.08,.03,.11,.1,.45,.06,.16,.02,.18,.02,.37,0,.56-.1,1.93,2.9,1.92,3,0h0Z"/></g></g><g id="c"/><g id="d"/><g id="e"/><g id="f"/><g id="g"/><g id="h"/><g id="i"/></svg>